<?xml version="1.0" encoding="UTF-8"?>
<svg xmlns="http://www.w3.org/2000/svg" xmlns:xlink="http://www.w3.org/1999/xlink" width="132.499" height="82.027" viewBox="0 0 132.499 82.027">
  <defs>
    <radialGradient id="radial-gradient" cx="0.5" cy="0.5" r="1.662" gradientUnits="objectBoundingBox">
      <stop offset="0" stop-color="#f8d26c"></stop>
      <stop offset="1" stop-color="#cca53b"></stop>
    </radialGradient>
  </defs>
  <g id="logo_alone" transform="translate(0 0)">
    <g id="Groupe_9" data-name="Groupe 9">
      <path id="Union_2" data-name="Union 2" d="M13.5,81.5a3.674,3.674,0,0,1-.7-.084l-.032-.007-.018,0h0a1.482,1.482,0,0,1-.622-.336h0l-.017-.016,0,0-.01-.01-.008-.008-.007-.007-.019-.019,0,0-.012-.012h0a1.5,1.5,0,0,1-.144-.177l0,0L11.9,80.8l-.007-.01-.007-.011-.01-.015,0,0a1.486,1.486,0,0,1-.228-.753s0-.007,0-.01v0a1.49,1.49,0,0,1,.024-.3h0l0-.011a1.485,1.485,0,0,1,.5-.859,34.348,34.348,0,0,0,2.866-2.739,51.193,51.193,0,0,0,5.188-6.982l.561-.89c.506-.8,1.012-1.609,1.534-2.4a34.961,34.961,0,0,1,6.466-7.7,15.994,15.994,0,0,1,1.9-1.37,49,49,0,0,1-5.9-1.146,39.552,39.552,0,0,1-4.874-1.583,34.932,34.932,0,0,1-4.61-2.114A29.416,29.416,0,0,1,9.5,47.317,27.581,27.581,0,0,1,3.823,39.4q-.86-1.834-1.557-3.739A34.723,34.723,0,0,1,.825,30.833,38.941,38.941,0,0,1,.13,25.566l-.054-.843C.013,23.549.006,22.374,0,21.2a6.774,6.774,0,0,1,.049-.981,1.513,1.513,0,0,1,.263-.656,1.487,1.487,0,0,1,1.02-.715,29.933,29.933,0,0,1,4.557-.362c2.122-.059,4.206.033,6.683.191q2.629.167,5.249.464,1.31.149,2.615.329l.7.1q.012-.387.031-.773.089-1.78.334-3.548a34.214,34.214,0,0,1,1.707-6.785c.19-.532.385-1.063.589-1.59s.419-1.065.643-1.592.461-1.058.71-1.579l.388-.8L26.57.973A1.977,1.977,0,0,1,26.938.5a1.49,1.49,0,0,1,.526-.378,1.084,1.084,0,0,1,.19-.071A1.424,1.424,0,0,1,27.83.017a1.483,1.483,0,0,1,.773.09,64.629,64.629,0,0,1,10.869,5.4,49.794,49.794,0,0,1,9.02,7.16,49.441,49.441,0,0,1,5.644,6.9,45.559,45.559,0,0,1,5.387,9.527,44.8,44.8,0,0,1,2.969,13.146,57.4,57.4,0,0,1-.032,11.58,1.512,1.512,0,0,1-.072.328q-.071,1.15-.234,2.291a28.951,28.951,0,0,1-1.662,6.352,22.9,22.9,0,0,1-2.222,4.5,6.779,6.779,0,0,1-.586,1.255A17.746,17.746,0,0,1,54.87,71.9a29.368,29.368,0,0,1-7.649,5.45,26.2,26.2,0,0,1-4.136,1.639,55.105,55.105,0,0,1-9.23,2.151,101.04,101.04,0,0,1-10.338.871q-.571.012-1.165.012A85.191,85.191,0,0,1,13.5,81.5ZM47.738,63.792a17.132,17.132,0,0,1-3.131,3.425c-.792.673-1.348,1.145-1.913,1.608a57.45,57.45,0,0,1-7.241,5.012,42.642,42.642,0,0,1-5.674,2.728c-.452.168-.856.332-1.26.5l-1,.4q-2.205.848-4.452,1.584l.385-.007a98.376,98.376,0,0,0,10.033-.848,52.375,52.375,0,0,0,8.724-2.043,23.258,23.258,0,0,0,3.67-1.451A26.4,26.4,0,0,0,52.757,69.8a15.21,15.21,0,0,0,2.366-2.788,3.388,3.388,0,0,0,.343-2.865c-.6-1.974-2.565-3.865-5.677-5.473C49.859,60.725,48.525,62.654,47.738,63.792ZM38.8,57.041l-1.136.207A15.015,15.015,0,0,0,30.7,60.4a32.218,32.218,0,0,0-5.889,7.046c-.511.779-1.007,1.568-1.5,2.357l-.565.9a55.745,55.745,0,0,1-5,6.829,89.626,89.626,0,0,0,8.708-2.849l.95-.378c.432-.175.865-.35,1.3-.512a39.628,39.628,0,0,0,5.24-2.518,54.545,54.545,0,0,0,6.865-4.749l1.637-1.374A14.992,14.992,0,0,0,45.287,62.1c.653-.944,1.868-2.7,1.431-3.766-.352-.857-1.46-1.361-3.293-1.5-.543-.04-1.089-.065-1.635-.065l-.231,0a16.9,16.9,0,0,0-2.037.161l-.043.006Q39.139,56.984,38.8,57.041Zm18.887,4.733.025-.063a25.947,25.947,0,0,0,1.491-5.7,25.558,25.558,0,0,0,.249-2.935,14.826,14.826,0,0,0-.25-2.906,17.267,17.267,0,0,0-1.778-5.19,18.17,18.17,0,0,0-3.472-4.55,31.794,31.794,0,0,0-4.881-3.588c-1.829-1.174-3.707-2.269-5.6-3.34l-1.524-.853c-1.447-.8-2.893-1.611-4.288-2.5a17.833,17.833,0,0,1-4.852-4.371q-.563-.758-1.063-1.562a23.619,23.619,0,0,1-2.2-4.579,28.555,28.555,0,0,1-1.165-5l-.334-2.133c-.26-1.721-.517-3.443-.75-5.168q-.061-.447-.119-.894-.315.743-.6,1.5t-.564,1.522a31.263,31.263,0,0,0-1.561,6.191q-.227,1.636-.31,3.288-.041.825-.046,1.651l0,.617c0,.044.007.087.008.129q0,.322.025.648a1.35,1.35,0,0,1,.05.58c.1.962.288,1.92.466,2.781a24.21,24.21,0,0,0,3.068,7.739c.216.351.447.693.691,1.026a32.72,32.72,0,0,0,2.824,3.312,13.821,13.821,0,0,0,3.153,2.566,1.494,1.494,0,0,1,.332.254,6.049,6.049,0,0,1,.533.3l.431.253.8.448q2.011,1.076,4.011,2.172,4.545,2.492,9.034,5.094A16.151,16.151,0,0,1,56.1,55.253a18.81,18.81,0,0,1,1.175,5.831Q57.5,61.424,57.688,61.774ZM46.139,54.322a12.336,12.336,0,0,1,2.842.772,17.453,17.453,0,0,1,1.99.84,22.779,22.779,0,0,1,2.794,1.66,6.746,6.746,0,0,0-.373-1.107,13.18,13.18,0,0,0-5.363-5.394q-4.457-2.583-8.974-5.06-1.985-1.092-3.983-2.157l-.88-.5-.507-.3a4.466,4.466,0,0,0-1.4-.254c-.4-.022-.8-.045-1.2-.094a32.541,32.541,0,0,1-4.958-1.005,39.276,39.276,0,0,1-9.214-4.146,51.306,51.306,0,0,1-8.008-6.209A48.963,48.963,0,0,1,4.066,26.49c-.362-.417-.666-.768-.963-1.129a36,36,0,0,0,.638,4.861,31.848,31.848,0,0,0,1.323,4.419q.651,1.78,1.457,3.5a24.589,24.589,0,0,0,5.062,7.045,26.6,26.6,0,0,0,5.212,4.137,32.56,32.56,0,0,0,4.224,1.928,36.564,36.564,0,0,0,4.5,1.463A37.918,37.918,0,0,0,35.1,54.044l1.179,0c.951.008,1.916.018,2.852-.069a19.934,19.934,0,0,1,2.391-.187h.271c.618,0,1.237.028,1.854.073a10.428,10.428,0,0,1,2.46.455ZM30.255,6.939c.23,1.71.485,3.416.742,5.121l.328,2.1a26.053,26.053,0,0,0,1.034,4.489,20.626,20.626,0,0,0,1.919,4q.433.7.924,1.357a14.717,14.717,0,0,0,4.061,3.636c1.346.857,2.742,1.633,4.137,2.409l1.544.864c1.939,1.1,3.864,2.222,5.739,3.426a34.01,34.01,0,0,1,5.334,3.945,21.362,21.362,0,0,1,3.524,4.392q-.007-.072-.014-.145A41.592,41.592,0,0,0,56.761,30.21a43,43,0,0,0-5.07-8.94,46.716,46.716,0,0,0-5.319-6.509,47.139,47.139,0,0,0-8.52-6.753,55.9,55.9,0,0,0-7.988-4.149Q30.048,5.4,30.255,6.939ZM4.774,22.666c.522.7.948,1.186,1.552,1.882A46.238,46.238,0,0,0,10.9,29.156a48.819,48.819,0,0,0,7.531,5.859,36.374,36.374,0,0,0,8.518,3.848q1,.285,2.017.5A35.222,35.222,0,0,1,26,35.869c-.29-.4-.566-.8-.823-1.224a27.215,27.215,0,0,1-3.447-8.695,29.4,29.4,0,0,1-.541-3.369l-1.164-.162q-1.27-.176-2.542-.32-2.545-.288-5.1-.45c-2.4-.152-4.4-.242-6.411-.186-.659.018-1.329.037-1.99.077C4.24,21.936,4.5,22.3,4.774,22.666Z" fill="url(#radial-gradient)"></path>
    </g>
    <path id="Tracé_29" data-name="Tracé 29" d="M139.558,22.365a2.374,2.374,0,0,1,.934-2.7c.787-.338,1.711.321,2.282.726a6.36,6.36,0,0,1,2.035,2.543,15.49,15.49,0,0,1,1.352,4.384c.031.207.048.348.065.483.469,3.745,1.287,6.7,1.035,6.786-.39.129-1.2-7.331-5.586-9.982a4.092,4.092,0,0,1-2.117-2.245" transform="translate(-83.633 -11.192)" fill="url(#radial-gradient)"></path>
    <path id="Union_1" data-name="Union 1" d="M8.2,8.946V0c8.937,7.678,8.188,8.946,8.188,8.946Zm-8.188,0S-.734,7.678,8.2,0V8.946Z" transform="translate(58.047 72.968)" fill="url(#radial-gradient)"></path>
    <g id="Groupe_11" data-name="Groupe 11" transform="translate(69.732 0)">
      <path id="Union_3" data-name="Union 3" d="M39.252,82.015a101.04,101.04,0,0,1-10.338-.871,55.074,55.074,0,0,1-9.23-2.151,26.148,26.148,0,0,1-4.136-1.639A29.378,29.378,0,0,1,7.9,71.9,17.757,17.757,0,0,1,5.085,68.54,6.793,6.793,0,0,1,4.5,67.283a22.874,22.874,0,0,1-2.221-4.5A28.906,28.906,0,0,1,.615,56.436Q.452,55.3.381,54.145a1.5,1.5,0,0,1-.071-.327,57.368,57.368,0,0,1-.032-11.58A44.763,44.763,0,0,1,3.246,29.092a45.558,45.558,0,0,1,5.387-9.527,49.4,49.4,0,0,1,5.644-6.9A49.832,49.832,0,0,1,23.3,5.505a64.691,64.691,0,0,1,10.87-5.4,1.482,1.482,0,0,1,.763-.091,1.408,1.408,0,0,1,.186.035,1.088,1.088,0,0,1,.191.071A1.491,1.491,0,0,1,35.831.5,1.978,1.978,0,0,1,36.2.973L37.229,2.9l.388.8q.372.781.709,1.579t.643,1.593q.3.791.589,1.59a34.245,34.245,0,0,1,1.707,6.785q.245,1.766.334,3.547.02.387.032.774l.7-.1q1.306-.181,2.615-.329,2.618-.3,5.249-.464c2.477-.158,4.561-.25,6.683-.191a29.953,29.953,0,0,1,4.557.362,1.486,1.486,0,0,1,1.018.712,1.511,1.511,0,0,1,.265.659,6.753,6.753,0,0,1,.049.981c-.006,1.175-.012,2.35-.077,3.524l-.053.843a38.949,38.949,0,0,1-.694,5.267A34.726,34.726,0,0,1,60.5,35.665q-.7,1.9-1.557,3.739a27.6,27.6,0,0,1-5.678,7.912A29.422,29.422,0,0,1,47.462,51.9a35,35,0,0,1-4.61,2.114A39.559,39.559,0,0,1,37.978,55.6a48.989,48.989,0,0,1-5.9,1.146,15.984,15.984,0,0,1,1.9,1.37,34.959,34.959,0,0,1,6.466,7.7c.521.795,1.028,1.6,1.534,2.4l.561.89a51.27,51.27,0,0,0,5.187,6.982A34.455,34.455,0,0,0,50.6,78.825a1.491,1.491,0,0,1,.34,1.866l-.005.01,0,.007a1.49,1.49,0,0,1-.967.711,3.7,3.7,0,0,1-.7.084,85.121,85.121,0,0,1-8.846.524Q39.823,82.027,39.252,82.015ZM7.3,64.149a3.387,3.387,0,0,0,.343,2.865A15.226,15.226,0,0,0,10.011,69.8a26.391,26.391,0,0,0,6.878,4.891,23.192,23.192,0,0,0,3.67,1.451,52.362,52.362,0,0,0,8.724,2.043,98.539,98.539,0,0,0,10.032.849l.386.007q-2.243-.734-4.452-1.584l-1-.4c-.4-.164-.809-.328-1.26-.5a42.56,42.56,0,0,1-5.674-2.728,57.428,57.428,0,0,1-7.241-5.011c-.564-.463-1.121-.935-1.912-1.608a17.131,17.131,0,0,1-3.131-3.425c-.787-1.137-2.12-3.066-2.051-5.115C9.866,60.285,7.905,62.175,7.3,64.149Zm12.041-7.315c-1.833.135-2.941.639-3.293,1.5-.437,1.066.778,2.822,1.43,3.766a14.992,14.992,0,0,0,2.844,3.049l1.637,1.375a54.522,54.522,0,0,0,6.865,4.749,39.613,39.613,0,0,0,5.24,2.518c.437.162.869.337,1.3.512l.95.378a89.428,89.428,0,0,0,8.708,2.85,55.707,55.707,0,0,1-5-6.829l-.565-.9c-.5-.789-.992-1.577-1.5-2.357A32.211,32.211,0,0,0,32.069,60.4,15.023,15.023,0,0,0,25.1,57.247l-1.136-.207q-.343-.057-.687-.1l-.028,0a16.86,16.86,0,0,0-2.044-.162h-.231C20.432,56.77,19.886,56.795,19.343,56.835Zm16.123-49.5c-.232,1.725-.489,3.447-.749,5.168l-.333,2.133a28.6,28.6,0,0,1-1.166,5,23.618,23.618,0,0,1-2.2,4.579q-.5.8-1.063,1.562a17.819,17.819,0,0,1-4.851,4.37c-1.4.889-2.842,1.695-4.288,2.5l-1.524.853c-1.891,1.071-3.769,2.167-5.6,3.34a31.8,31.8,0,0,0-4.881,3.588,18.162,18.162,0,0,0-3.472,4.55,17.263,17.263,0,0,0-1.778,5.189,14.787,14.787,0,0,0-.249,2.906,25.562,25.562,0,0,0,.248,2.935,25.949,25.949,0,0,0,1.491,5.7l.025.063q.187-.35.409-.691a18.808,18.808,0,0,1,1.175-5.831,16.147,16.147,0,0,1,6.582-6.739q4.487-2.6,9.034-5.094,2-1.1,4.011-2.172l.8-.448.431-.253a5.931,5.931,0,0,1,.533-.3,1.487,1.487,0,0,1,.331-.254,13.808,13.808,0,0,0,3.153-2.566,32.662,32.662,0,0,0,2.825-3.312c.243-.333.475-.675.691-1.026a24.23,24.23,0,0,0,3.068-7.74c.179-.862.366-1.819.466-2.781a1.347,1.347,0,0,1,.05-.58c.014-.217.023-.433.025-.648,0-.043,0-.086.008-.131l0-.616q-.005-.825-.046-1.65-.083-1.649-.31-3.287a31.242,31.242,0,0,0-1.562-6.191c-.182-.509-.369-1.017-.563-1.522s-.394-1-.6-1.5Q35.526,6.89,35.466,7.337ZM58.7,26.491a48.989,48.989,0,0,1-4.843,4.881,51.3,51.3,0,0,1-8.008,6.209,39.244,39.244,0,0,1-9.214,4.147,32.523,32.523,0,0,1-4.959,1.005c-.4.049-.8.071-1.2.094a4.453,4.453,0,0,0-1.4.254l-.507.3-.88.5q-2,1.068-3.982,2.157-4.517,2.477-8.974,5.06a13.186,13.186,0,0,0-5.364,5.395A6.75,6.75,0,0,0,9,57.594a22.765,22.765,0,0,1,2.795-1.66,17.348,17.348,0,0,1,1.99-.84,12.3,12.3,0,0,1,2.842-.772l.033,0a10.424,10.424,0,0,1,2.461-.456c.617-.045,1.235-.073,1.854-.073l.271,0a19.876,19.876,0,0,1,2.391.187c.936.086,1.9.076,2.851.069l1.179,0a37.9,37.9,0,0,0,9.574-1.332,36.53,36.53,0,0,0,4.5-1.463,32.441,32.441,0,0,0,4.224-1.928,26.571,26.571,0,0,0,5.212-4.137,24.6,24.6,0,0,0,5.062-7.045q.8-1.716,1.456-3.5a31.859,31.859,0,0,0,1.323-4.419,36.029,36.029,0,0,0,.638-4.861C59.368,25.722,59.065,26.073,58.7,26.491ZM24.916,8.007A47.115,47.115,0,0,0,16.4,14.76a46.756,46.756,0,0,0-5.32,6.509,43.007,43.007,0,0,0-5.069,8.941A41.585,41.585,0,0,0,3.242,42.532l-.014.145a21.359,21.359,0,0,1,3.524-4.392,34.034,34.034,0,0,1,5.334-3.946c1.875-1.2,3.8-2.327,5.738-3.426l1.544-.864c1.4-.776,2.791-1.552,4.136-2.409A14.706,14.706,0,0,0,27.566,24q.491-.659.924-1.357a20.616,20.616,0,0,0,1.919-4,26.024,26.024,0,0,0,1.033-4.488l.328-2.1c.258-1.705.513-3.412.743-5.121q.208-1.54.391-3.082A55.906,55.906,0,0,0,24.916,8.007ZM50.385,21.649q-2.556.163-5.1.451-1.273.145-2.542.32l-1.164.162a29.375,29.375,0,0,1-.541,3.369,27.195,27.195,0,0,1-3.447,8.694c-.258.419-.534.827-.823,1.224A35.162,35.162,0,0,1,33.8,39.362q1.017-.214,2.016-.5a36.38,36.38,0,0,0,8.518-3.848,48.811,48.811,0,0,0,7.531-5.859,46.247,46.247,0,0,0,4.575-4.608c.6-.7,1.03-1.186,1.551-1.882.271-.362.534-.729.792-1.126-.661-.04-1.331-.059-1.99-.077-.408-.011-.816-.017-1.227-.017C53.956,21.446,52.294,21.528,50.385,21.649Z" transform="translate(0 0)" fill="url(#radial-gradient)"></path>
    </g>
    <path id="Tracé_40" data-name="Tracé 40" d="M147.223,22.365a2.374,2.374,0,0,0-.934-2.7c-.787-.338-1.711.321-2.282.726a6.36,6.36,0,0,0-2.035,2.543,15.49,15.49,0,0,0-1.352,4.384c-.031.207-.048.348-.065.483-.469,3.745-1.287,6.7-1.035,6.786.39.129,1.2-7.331,5.586-9.982a4.092,4.092,0,0,0,2.117-2.245" transform="translate(-70.648 -11.192)" fill="url(#radial-gradient)"></path>
  </g>
</svg>
