<?xml version="1.0" encoding="UTF-8"?>
<svg xmlns="http://www.w3.org/2000/svg" xmlns:xlink="http://www.w3.org/1999/xlink" width="300" height="300" viewBox="0 0 300 300">
  <defs>
    <clipPath id="clip-favicon">
      <rect width="300" height="300"></rect>
    </clipPath>
  </defs>
  <g id="favicon" clip-path="url(#clip-favicon)">
    <path id="Tracé_4112" data-name="Tracé 4112" d="M641.686,519.533c6.237,6.237,14.4,9.814,22.4,9.814h0a25.205,25.205,0,0,0,5.1-.514,1.141,1.141,0,0,0,.276-.1l6.081,5.9L656.5,537.774a5.378,5.378,0,1,0,.523,2.3c0-.014,0-.027,0-.041l20.581-3.4h0l25.108,24.349a1.157,1.157,0,0,0,1.611-1.661l-3.882-3.764V536.618a1.157,1.157,0,0,0-2.314,0v16.7l-8.27-8.019V534.05a1.157,1.157,0,0,0-2.314,0v9l-8.962-8.691.241-21.97c6.4-4.24,10.365-12.29,10.365-21.035,0-8.766-3.989-16.835-10.411-21.066l0,0-.02-.013a1.147,1.147,0,0,0-.162-.088l-.046-.017a1.214,1.214,0,0,0-.15-.048l-.061-.013a1.155,1.155,0,0,0-.184-.02l-.019,0h-.014a1.159,1.159,0,0,0-.2.02l-.062.014a1.129,1.129,0,0,0-.142.043c-.018.007-.037.013-.055.021a1.152,1.152,0,0,0-.172.091l-.006,0,0,0c-6.431,4.228-10.426,12.3-10.426,21.077,0,8.329,3.6,16.025,9.468,20.4l-.224,20.383-5.946-5.766c1.249-8.9-2.329-18.7-9.568-25.941-6.237-6.237-14.4-9.814-22.4-9.814a25.208,25.208,0,0,0-5.1.514h0l-.007,0a1.175,1.175,0,0,0-.185.058c-.019.007-.037.017-.056.025a1.142,1.142,0,0,0-.133.073c-.017.011-.033.02-.049.032a1.147,1.147,0,0,0-.158.133l-.006,0c-.006.006-.01.014-.016.02a1.155,1.155,0,0,0-.109.138c-.012.018-.024.035-.034.054a1.137,1.137,0,0,0-.072.142c-.006.015-.014.028-.019.043a1.132,1.132,0,0,0-.051.174l-.005.028v.005C630.468,501.357,634.031,511.878,641.686,519.533Zm9.951,23.619a3.076,3.076,0,1,1,3.076-3.076A3.08,3.08,0,0,1,651.637,543.152Zm19.621-61.536,5.517,7.022-.123,11.214-6.923-8.811a1.154,1.154,0,0,0-.354-.3A25.586,25.586,0,0,1,671.258,481.616Zm15.611,8.989a1.149,1.149,0,0,0-.843.436l-7.061,8.987.116-10.56a1.13,1.13,0,0,0,.123.01,1.155,1.155,0,0,0,.911-.443l5.193-6.609A25.709,25.709,0,0,1,686.869,490.6Zm-8.008,18.9.071-6.419h.012a1.156,1.156,0,0,0,.911-.442l6.906-8.789A22.763,22.763,0,0,1,678.861,509.5Zm5.4-29.489-5.148,6.551.143-13.027A20.616,20.616,0,0,1,684.261,480.013Zm-7.32-6.432-.125,11.363L672.6,479.58a1.136,1.136,0,0,0-.263-.238A20.427,20.427,0,0,1,676.941,473.581Zm-7.374,21,6.335,8.063a1.145,1.145,0,0,0,.716.421l-.063,5.73A22.926,22.926,0,0,1,669.567,494.579Zm-5.482,32.454h0c-7.388,0-14.955-3.33-20.761-9.136-6.528-6.528-9.861-15.251-9-23.242l33.133,32.131A23.206,23.206,0,0,1,664.084,527.033Zm-4.936-24.961c6.26,6.26,9.584,14.539,9.092,22.255L636,493.061a23.435,23.435,0,0,1,2.388-.126C645.775,492.935,653.342,496.265,659.148,502.071ZM834.7,664.5c.014-.021.03-.04.043-.062a1.154,1.154,0,0,0,.137-.352c0-.02.008-.041.011-.061a1.184,1.184,0,0,0,.014-.15c0-.019,0-.039,0-.058a1.144,1.144,0,0,0-.019-.191l0-.011V663.6c-1.222-6.3-6.178-11.949-12.938-14.734a23.1,23.1,0,0,0-8.831-1.782,19.076,19.076,0,0,0-10.275,2.832l-21.848-6.583a47.547,47.547,0,0,0,7.4-4.363q1.086-.78,2.122-1.617a1.153,1.153,0,0,0,.577.156,1.1,1.1,0,0,0,.12-.006l19.293-2a4.684,4.684,0,1,0-.054-2.321l-17.18,1.784a49.528,49.528,0,0,0,8.226-10.014,1.153,1.153,0,0,0,.514.124,1.165,1.165,0,0,0,.328-.047c4.585-1.357,8.408-5.428,9.978-10.625s.639-10.7-2.428-14.372a1.159,1.159,0,0,0-1.216-.367c-4.585,1.357-8.408,5.428-9.978,10.625a16.057,16.057,0,0,0,1.258,12.7,47.7,47.7,0,0,1-8.379,10.346l-3.531-15.05a4.686,4.686,0,1,0-2.369.036l3.93,16.749a45.145,45.145,0,0,1-12.093,7.22,1.152,1.152,0,0,0-1.222.465l-.242.088,1.314-18.4a1.157,1.157,0,0,0-2.309-.165l-1.381,19.343a41.6,41.6,0,0,1-17.929,1.253l7.985-10.646a1.157,1.157,0,0,0-1.852-1.389l-8.732,11.642a1.283,1.283,0,0,0,.079,2.271l9.174,9.052a1.138,1.138,0,0,0-.045.374l1.442,24.962c-5.966,4.386-9.312,12.2-8.735,20.422.579,8.244,5.012,15.576,11.568,19.134.031.017.064.031.1.044l.03.014a1.165,1.165,0,0,0,.18.054l.049.009a1.139,1.139,0,0,0,.194.019h0l.066,0c.014,0,.026-.005.04-.006a1.139,1.139,0,0,0,.149-.024c.023-.005.045-.01.068-.016a1.157,1.157,0,0,0,.151-.057c.014-.007.03-.011.044-.018a1.135,1.135,0,0,0,.164-.1l.017-.013.005,0c5.99-4.38,9.352-12.213,8.773-20.451-.547-7.795-4.54-14.772-10.516-18.516l-1.356-23.47,5.008,4.942c-1.47,9.04,2.106,19.089,9.488,26.471h0c6.236,6.235,14.4,9.812,22.395,9.812h0a25.208,25.208,0,0,0,5.086-.511h.006l.009,0a1.134,1.134,0,0,0,.186-.057c.018-.007.036-.016.054-.024a1.221,1.221,0,0,0,.133-.071l.053-.034a1.143,1.143,0,0,0,.159-.131l0,0s.008-.01.012-.015a1.158,1.158,0,0,0,.115-.143c.013-.018.024-.037.036-.056a1.133,1.133,0,0,0,.069-.134c.008-.017.016-.033.023-.05a1.174,1.174,0,0,0,.054-.179l0-.019v0c1.914-9.283-1.64-19.8-9.282-27.453l0,0-.02-.02c-6.237-6.237-14.4-9.814-22.4-9.814a25.245,25.245,0,0,0-4.887.475L757.153,647.39a43.861,43.861,0,0,0,20.512-2.637l24.367,7.342c1.434,6.031,6.273,11.374,12.791,14.059a23.1,23.1,0,0,0,8.831,1.781h0a18.938,18.938,0,0,0,10.727-3.127l0,0,.014-.009c.019-.013.036-.029.054-.043s.049-.037.072-.058.037-.039.056-.058.042-.042.061-.066S834.68,664.522,834.7,664.5ZM815,631.869a2.371,2.371,0,1,1-2.371,2.37A2.373,2.373,0,0,1,815,631.869Zm-14.1-20.91a13.465,13.465,0,0,1,7.68-8.825,13.464,13.464,0,0,1,1.511,11.6,13.66,13.66,0,0,1-7.06,8.564,52.055,52.055,0,0,0,5.292-14.814,1.157,1.157,0,0,0-2.271-.444,49.4,49.4,0,0,1-4.754,13.536A14.1,14.1,0,0,1,800.9,610.959Zm-16.492,2.819a2.371,2.371,0,1,1,2.371,2.371A2.373,2.373,0,0,1,784.41,613.779ZM757.358,701.4c-.481-6.853,2.02-13.37,6.59-17.418l1.937,33.526A21.639,21.639,0,0,1,757.358,701.4Zm16.98-1.091a21.407,21.407,0,0,1-6.146,17.01L766.3,684.565A21.766,21.766,0,0,1,774.338,700.309Zm-2.478-35.158,7.01,6.917.052,13.7C773.825,679.678,771.25,672.157,771.859,665.151Zm25.191,7.287a32.225,32.225,0,0,1,6.589,9.844l-13.2-2.051-8.3-8.187Zm-8.777,8.909.956,12.642a32.514,32.514,0,0,1-7.986-5.723l-.053-13.907Zm13.395,15.726a27.084,27.084,0,0,1-10.036-2l-.851-11.252,13.3,13.123a23.476,23.476,0,0,1-2.413.129Zm4.072-1.744L793.255,683.01l10.889,1.692a1.136,1.136,0,0,0,.4-.011A25.74,25.74,0,0,1,805.74,695.329Zm-29.768-32.354a29.323,29.323,0,0,1,18.508,7.079l-14.428-.381a1.137,1.137,0,0,0-.282.031l-6.644-6.556A23.449,23.449,0,0,1,775.972,662.975Zm45.089-11.965a19.273,19.273,0,0,1,10.947,10.863L805.64,651.012a17.337,17.337,0,0,1,7.472-1.609A20.8,20.8,0,0,1,821.061,651.01Zm2.593,14.611a20.8,20.8,0,0,1-7.949-1.607,19.272,19.272,0,0,1-10.947-10.863l26.361,10.858A17.593,17.593,0,0,1,823.654,665.621ZM612.428,523.149a6.806,6.806,0,0,0-.59,4.269,1.156,1.156,0,0,0,.9.9,6.822,6.822,0,0,0,4.27-.587,6.807,6.807,0,0,0,2.6,3.433,1.159,1.159,0,0,0,1.27,0,6.128,6.128,0,0,0,1.186-1.027c1.511,13.677,14.472,24.15,30.006,24.15.466,0,.937-.01,1.407-.029a1.157,1.157,0,1,0-.094-2.312,30.6,30.6,0,0,1-17.154-4.317v0l3.528-23.989a1.157,1.157,0,1,0-2.29-.337l-3.367,22.9a23.455,23.455,0,0,1-9.854-17.836,1.148,1.148,0,0,0-.071-.339,6.908,6.908,0,0,0,2.339.421h0a6.077,6.077,0,0,0,1.233-.125,1.157,1.157,0,0,0,.9-.9,6.8,6.8,0,0,0-.59-4.269,6.807,6.807,0,0,0,3.435-2.6,1.157,1.157,0,0,0,0-1.27,6.807,6.807,0,0,0-3.435-2.6,6.8,6.8,0,0,0,.59-4.269,1.157,1.157,0,0,0-.9-.9,6.826,6.826,0,0,0-4.27.587,6.8,6.8,0,0,0-2.6-3.433,1.157,1.157,0,0,0-1.27,0,6.8,6.8,0,0,0-2.6,3.433,6.822,6.822,0,0,0-4.27-.587,1.157,1.157,0,0,0-.9.9,6.806,6.806,0,0,0,.59,4.269,6.809,6.809,0,0,0-3.435,2.6,1.158,1.158,0,0,0,0,1.27A6.809,6.809,0,0,0,612.428,523.149Zm1.96-4.57a1.157,1.157,0,0,0,.772-1.862,5.1,5.1,0,0,1-1.132-3.017,5.076,5.076,0,0,1,3.017,1.131,1.157,1.157,0,0,0,1.863-.771,5.1,5.1,0,0,1,1.333-2.934,5.1,5.1,0,0,1,1.333,2.934,1.157,1.157,0,0,0,1.862.771,5.078,5.078,0,0,1,3.017-1.131,5.1,5.1,0,0,1-1.131,3.017,1.157,1.157,0,0,0,.771,1.862,5.1,5.1,0,0,1,2.934,1.333,5.1,5.1,0,0,1-2.934,1.333,1.157,1.157,0,0,0-.771,1.863,5.1,5.1,0,0,1,1.131,3.017,5.077,5.077,0,0,1-3.017-1.131,1.157,1.157,0,0,0-1.862.772,5.1,5.1,0,0,1-1.333,2.934,5.1,5.1,0,0,1-1.333-2.934,1.157,1.157,0,0,0-1.863-.772,5.074,5.074,0,0,1-3.017,1.131,5.1,5.1,0,0,1,1.132-3.017,1.157,1.157,0,0,0-.772-1.863,5.1,5.1,0,0,1-2.934-1.333A5.1,5.1,0,0,1,614.389,518.579Zm80.018,94.865a1.157,1.157,0,0,0,1.27,0,12.773,12.773,0,0,0,5.151-7.6,13.268,13.268,0,0,0,6.786,1.959h0a11.029,11.029,0,0,0,2.235-.225,1.157,1.157,0,0,0,.9-.9,12.774,12.774,0,0,0-1.736-9.02,12.774,12.774,0,0,0,7.605-5.151,1.157,1.157,0,0,0,0-1.27,12.773,12.773,0,0,0-7.605-5.152,12.774,12.774,0,0,0,1.736-9.02,1.157,1.157,0,0,0-.9-.9,11.029,11.029,0,0,0-2.235-.225,13.269,13.269,0,0,0-6.786,1.959,12.774,12.774,0,0,0-5.151-7.6,1.158,1.158,0,0,0-1.27,0,12.777,12.777,0,0,0-5.151,7.6,13.268,13.268,0,0,0-6.785-1.959,11.035,11.035,0,0,0-2.235.225,1.157,1.157,0,0,0-.9.9,12.774,12.774,0,0,0,1.736,9.02,12.774,12.774,0,0,0-7.605,5.152,1.157,1.157,0,0,0,0,1.27,12.773,12.773,0,0,0,7.605,5.151,12.775,12.775,0,0,0-1.736,9.02,1.157,1.157,0,0,0,.9.9,11.033,11.033,0,0,0,2.235.225,13.268,13.268,0,0,0,6.785-1.959A12.776,12.776,0,0,0,694.406,613.445Zm-12.926-8.013a11.065,11.065,0,0,1,2.462-7.873,1.157,1.157,0,0,0-.772-1.862,11.064,11.064,0,0,1-7.307-3.826,11.063,11.063,0,0,1,7.307-3.826,1.157,1.157,0,0,0,.772-1.862,11.064,11.064,0,0,1-2.462-7.873,9.005,9.005,0,0,1,.99-.054,11.3,11.3,0,0,1,6.882,2.516,1.157,1.157,0,0,0,1.863-.772,11.064,11.064,0,0,1,3.826-7.307A11.065,11.065,0,0,1,698.868,580a1.157,1.157,0,0,0,1.863.772,11.3,11.3,0,0,1,6.883-2.516,8.995,8.995,0,0,1,.99.054,11.065,11.065,0,0,1-2.462,7.873,1.157,1.157,0,0,0,.772,1.862,11.061,11.061,0,0,1,7.307,3.826,11.065,11.065,0,0,1-7.307,3.826,1.157,1.157,0,0,0-.772,1.862,11.065,11.065,0,0,1,2.462,7.873,9.006,9.006,0,0,1-.99.054,11.3,11.3,0,0,1-6.883-2.516,1.157,1.157,0,0,0-1.863.771,11.065,11.065,0,0,1-3.826,7.307,11.064,11.064,0,0,1-3.826-7.307,1.157,1.157,0,0,0-1.863-.771,11.3,11.3,0,0,1-6.882,2.516A9.015,9.015,0,0,1,681.48,605.432Zm69.29,54.726a1.157,1.157,0,0,0-.9-.9,6.8,6.8,0,0,0-4.249.583,6.785,6.785,0,0,0-2.59-3.416,1.158,1.158,0,0,0-1.27,0,6.785,6.785,0,0,0-2.59,3.416,6.8,6.8,0,0,0-4.249-.583,1.157,1.157,0,0,0-.9.9,6.781,6.781,0,0,0,.585,4.249,6.78,6.78,0,0,0-3.418,2.59,1.157,1.157,0,0,0,0,1.27,6.782,6.782,0,0,0,3.418,2.59,6.782,6.782,0,0,0-.585,4.248,1.158,1.158,0,0,0,.9.9,6.8,6.8,0,0,0,4.249-.583,6.781,6.781,0,0,0,2.59,3.416,1.158,1.158,0,0,0,1.27,0,6.78,6.78,0,0,0,2.59-3.416,7.032,7.032,0,0,0,3.021.707h0a6.058,6.058,0,0,0,1.229-.124,1.158,1.158,0,0,0,.9-.9,6.782,6.782,0,0,0-.585-4.248,6.782,6.782,0,0,0,3.418-2.59,1.157,1.157,0,0,0,0-1.27,6.779,6.779,0,0,0-3.418-2.59A6.783,6.783,0,0,0,750.771,660.158Zm.37,7.474a5.077,5.077,0,0,1-2.915,1.323,1.157,1.157,0,0,0-.772,1.863,1.758,1.758,0,1,1-1.87,1.871,1.157,1.157,0,0,0-1.862.771,5.077,5.077,0,0,1-1.323,2.915,5.079,5.079,0,0,1-1.323-2.915,1.157,1.157,0,0,0-1.862-.771,1.758,1.758,0,1,1-1.87-1.871,1.157,1.157,0,0,0-.772-1.863,5.078,5.078,0,0,1-2.915-1.323,5.078,5.078,0,0,1,2.915-1.323,1.157,1.157,0,0,0,.772-1.862,1.758,1.758,0,1,1,1.87-1.871,1.157,1.157,0,0,0,1.862-.772,5.082,5.082,0,0,1,1.323-2.915,5.08,5.08,0,0,1,1.323,2.915,1.157,1.157,0,0,0,1.862.772,1.758,1.758,0,1,1,1.87,1.871,1.157,1.157,0,0,0,.772,1.862A5.077,5.077,0,0,1,751.14,667.632ZM697.9,494.981a28.95,28.95,0,0,0,10.017,10.645,31.211,31.211,0,0,0,17.094,4.763,46.873,46.873,0,0,0,14.368-2.439,53.863,53.863,0,0,1-11.07,10.833,1.17,1.17,0,0,0-.229.012c-10.908,1.676-20.263.24-27.053-4.152a20.529,20.529,0,0,1-7.042-7.2,1.157,1.157,0,0,0-2.086,1,22.289,22.289,0,0,0,7.734,8.053c3.962,2.6,10.38,5.3,19.935,5.3q2.1,0,4.4-.183c-10.845,6.264-23.423,7.952-34.938,3.541a1.157,1.157,0,1,0-.828,2.161,39.955,39.955,0,0,0,14.341,2.65,43.841,43.841,0,0,0,17.386-3.7,16.829,16.829,0,0,0-2.128,12.45c1.124,5.522,4.683,10.1,9.289,11.937a1.157,1.157,0,0,0,1.245-.253c3.52-3.5,5.009-9.1,3.886-14.618a16.421,16.421,0,0,0-8.27-11.471,52.433,52.433,0,0,0,7.076-4.621,16.359,16.359,0,0,0,4.971,13.494,16.766,16.766,0,0,0,11.655,5.1h0a13.231,13.231,0,0,0,2.679-.27,1.158,1.158,0,0,0,.9-.9c1.007-4.857-.843-10.35-4.827-14.334a16.767,16.767,0,0,0-11.655-5.1c-.456,0-.909.023-1.356.068a58.711,58.711,0,0,0,15.034-20.525,9.236,9.236,0,0,0,3.22,3.817,1.159,1.159,0,0,0,1.27,0,9.631,9.631,0,0,0,3.816-5.393,10,10,0,0,0,4.807,1.286h0a8.438,8.438,0,0,0,1.708-.172,1.158,1.158,0,0,0,.9-.9,9.632,9.632,0,0,0-1.116-6.514,9.634,9.634,0,0,0,5.4-3.817,1.158,1.158,0,0,0,0-1.27,9.634,9.634,0,0,0-5.4-3.817,9.631,9.631,0,0,0,1.116-6.514,1.158,1.158,0,0,0-.9-.9,8.439,8.439,0,0,0-1.708-.172,10,10,0,0,0-4.807,1.286,9.63,9.63,0,0,0-3.816-5.393,1.157,1.157,0,0,0-1.27,0,9.632,9.632,0,0,0-3.817,5.393,10,10,0,0,0-4.807-1.286,8.439,8.439,0,0,0-1.708.172,1.158,1.158,0,0,0-.9.9,9.632,9.632,0,0,0,1.116,6.514,9.63,9.63,0,0,0-5.4,3.817,1.157,1.157,0,0,0,0,1.27,9.63,9.63,0,0,0,5.4,3.817,9.633,9.633,0,0,0-1.116,6.514,1.158,1.158,0,0,0,.9.9,8.439,8.439,0,0,0,1.708.172,9.635,9.635,0,0,0,3.26-.589,58.4,58.4,0,0,1-4.585,8.366,1.09,1.09,0,0,0-.151.04c-12.757,4.819-23.618,4.48-32.282-1.008A27.27,27.27,0,0,1,700,494.009a18.864,18.864,0,0,1,10.72-24.39,14.859,14.859,0,0,1,19.25,8.429,11.657,11.657,0,0,1-6.612,15.1,9.1,9.1,0,0,1-11.781-5.159,7.051,7.051,0,0,1,4-9.124,5.4,5.4,0,0,1,7,3.065,1.157,1.157,0,0,0,2.156-.842,7.717,7.717,0,0,0-10-4.378,9.368,9.368,0,0,0-5.309,12.123A11.406,11.406,0,0,0,724.2,495.3a13.97,13.97,0,0,0,7.925-18.1,17.194,17.194,0,0,0-22.249-9.742A21.178,21.178,0,0,0,697.862,494.9C697.873,494.927,697.885,494.955,697.9,494.981Zm46.863,29.428a14.048,14.048,0,0,1,4.327,11.459,11.17,11.17,0,0,1-1.441.093h0a14.443,14.443,0,0,1-10.018-4.419,14.05,14.05,0,0,1-4.327-11.459,11.174,11.174,0,0,1,1.442-.093A14.442,14.442,0,0,1,744.761,524.409Zm-14.814,11.828a14.049,14.049,0,0,1-2.716,11.944,14.876,14.876,0,0,1-4.452-21.878A14.049,14.049,0,0,1,729.947,536.238Zm12.622-41.64a7.922,7.922,0,0,1,1.772-5.329,1.157,1.157,0,0,0-.771-1.862,7.922,7.922,0,0,1-5.022-2.515,7.922,7.922,0,0,1,5.022-2.515,1.157,1.157,0,0,0,.771-1.862,7.922,7.922,0,0,1-1.772-5.329,7.9,7.9,0,0,1,5.329,1.772,1.157,1.157,0,0,0,1.862-.772,7.921,7.921,0,0,1,2.515-5.021,7.922,7.922,0,0,1,2.515,5.021,1.157,1.157,0,0,0,1.862.772,7.9,7.9,0,0,1,5.329-1.772,7.922,7.922,0,0,1-1.772,5.329,1.157,1.157,0,0,0,.772,1.862A7.922,7.922,0,0,1,766,484.891a7.922,7.922,0,0,1-5.022,2.515,1.157,1.157,0,0,0-.772,1.862,7.922,7.922,0,0,1,1.772,5.329c-.148.01-.3.016-.448.016h0a8.019,8.019,0,0,1-4.881-1.788,1.157,1.157,0,0,0-1.862.772,7.923,7.923,0,0,1-2.515,5.021,7.923,7.923,0,0,1-2.515-5.021c0-.031-.011-.06-.017-.089s0-.03-.009-.045a1.152,1.152,0,0,0-.062-.185c-.006-.013-.013-.025-.019-.038a1.227,1.227,0,0,0-.08-.142c-.009-.013-.017-.026-.026-.039a1.132,1.132,0,0,0-.126-.147c-.01-.01-.022-.019-.032-.029a1.154,1.154,0,0,0-.129-.1l-.042-.028a1.19,1.19,0,0,0-.164-.085l-.015,0-.014-.007c-.03-.011-.06-.015-.089-.024s-.079-.025-.118-.032-.078-.008-.117-.011-.059-.009-.089-.009l-.02,0c-.027,0-.053,0-.079.006a1.159,1.159,0,0,0-.129.017c-.028.006-.055.013-.082.021a1.128,1.128,0,0,0-.119.04c-.026.011-.052.022-.078.034a1.112,1.112,0,0,0-.109.061c-.025.015-.049.03-.073.048s-.018.011-.026.017A7.9,7.9,0,0,1,742.569,494.6Zm49.081,27.539c-4.9,6.49-7.745,13.755-7.431,18.958a1.057,1.057,0,0,0,.02.118l-15.925,6.871a52.517,52.517,0,0,0,7.693-8.241c5.82-7.713,9.2-16.335,8.833-22.5a1.157,1.157,0,0,0-1.4-1.06c-6.031,1.334-13.393,6.954-19.214,14.667-5.788,7.671-9.166,16.239-8.837,22.4l-.074.1,0,0-.006.009a1.185,1.185,0,0,0-.105.19l-.014.032c-.01.025-.019.052-.028.078L741.167,559.8a1.157,1.157,0,1,0,.917,2.125l14.133-6.1c4.178,4.366,12,8,20.858,9.633a53.442,53.442,0,0,0,9.633.907h0c5.868,0,11-1.1,14.438-3.091a1.157,1.157,0,0,0,.318-1.731c-3.895-4.794-12.217-8.858-21.72-10.606a53.446,53.446,0,0,0-9.633-.907c-.161,0-.319,0-.479.006l15.7-6.776c3.587,3.735,10.631,6.659,18.516,7.663a46.328,46.328,0,0,0,5.828.376h0c5.855,0,11.073-1.219,14.316-3.344a1.157,1.157,0,0,0,.222-1.746c-3.505-3.859-10.693-6.893-18.76-7.92a46.324,46.324,0,0,0-5.828-.376c-.684,0-1.358.018-2.022.051l9.369-4.042a14.543,14.543,0,0,0,5.252.919h0a22.251,22.251,0,0,0,9.643-2.359c5.355-2.611,9.359-6.961,10.449-11.353a1.157,1.157,0,0,0-.651-1.335,14.2,14.2,0,0,0-5.737-1.118,22.249,22.249,0,0,0-9.643,2.358c-5.125,2.5-9.011,6.591-10.291,10.788l-9.947,4.292a44.634,44.634,0,0,0,5.761-6.306c4.9-6.491,7.745-13.755,7.431-18.958a1.157,1.157,0,0,0-1.405-1.06C802.752,510.915,796.547,515.646,791.65,522.137Zm-25.581,10.208c5.049-6.69,11.228-11.694,16.474-13.417-.218,5.517-3.334,12.832-8.383,19.522-4.345,5.758-9.527,10.264-14.231,12.507L771.5,534.721a1.157,1.157,0,0,0-1.885-1.343l-11.727,16.46C758.668,544.628,761.616,538.244,766.068,532.344Zm4.044,20a51.1,51.1,0,0,1,9.214.869c8.243,1.516,15.484,4.8,19.375,8.716a30.014,30.014,0,0,1-11.992,2.122h0a51.135,51.135,0,0,1-9.215-.869c-7.18-1.32-13.6-3.981-17.707-7.235l17.613,3.23a1.157,1.157,0,0,0,.418-2.276l-16.908-3.1,1.741-.751A37.171,37.171,0,0,1,770.112,552.345Zm35.056-11.76c6.787.864,12.844,3.177,16.286,6.159a27.6,27.6,0,0,1-11.774,2.241,44.025,44.025,0,0,1-5.536-.358,35.619,35.619,0,0,1-14.429-4.781l15.976,1.936a1.258,1.258,0,0,0,.141.008,1.157,1.157,0,0,0,.138-2.306l-15.855-1.921a31.339,31.339,0,0,1,9.516-1.337A44.024,44.024,0,0,1,805.168,540.585Zm12.139-17.47a19.932,19.932,0,0,1,8.629-2.124,12.724,12.724,0,0,1,3.842.555c-1.252,3.413-4.574,6.739-8.917,8.856a19.933,19.933,0,0,1-8.629,2.124,14.041,14.041,0,0,1-2.059-.148l11.693-5.757a1.157,1.157,0,0,0-1.022-2.077l-11.659,5.74A18.834,18.834,0,0,1,817.307,523.115Zm-10.373-10.661c-.269,4.546-2.844,10.5-6.965,15.96a38.132,38.132,0,0,1-9.558,9.136l7.92-12.036a1.157,1.157,0,0,0-1.933-1.272l-9.839,14.953c.359-4.507,2.905-10.319,6.939-15.664C797.618,518.069,802.636,513.96,806.934,512.454ZM695.248,596.718a4.332,4.332,0,1,0-4.332-4.332A4.337,4.337,0,0,0,695.248,596.718Zm0-6.35a2.018,2.018,0,1,1-2.018,2.018A2.02,2.02,0,0,1,695.248,590.368Zm56.512-81.782-4.233,6.35a1.157,1.157,0,0,1-1.926-1.284l4.233-6.35a1.157,1.157,0,0,1,1.925,1.284Zm-1.1,9.15,21.167-22.578a1.157,1.157,0,1,1,1.688,1.583l-21.167,22.578a1.157,1.157,0,0,1-1.688-1.583Zm7.194,8.3a1.157,1.157,0,0,1-.85-1.942c7.712-8.356,17.306-18.753,41.1-18.011a1.157,1.157,0,0,1-.073,2.313c-22.741-.71-31.552,8.841-39.331,17.268A1.154,1.154,0,0,1,757.852,526.035Zm22.862-27.166,5.715-11.451a1.157,1.157,0,0,1,2.071,1.033l-4.816,9.651,18.453-1.19a1.157,1.157,0,1,1,.149,2.309l-20.461,1.319-.075,0a1.157,1.157,0,0,1-1.035-1.674ZM733,562.273a1.157,1.157,0,0,1-1.157,1.157c-13.512,0-24.505-11.6-24.505-25.852a1.157,1.157,0,0,1,2.314,0c0,12.979,9.955,23.538,22.191,23.538A1.157,1.157,0,0,1,733,562.273Zm5.433-8.78a1.157,1.157,0,0,1-.732-1.464l2.822-8.467a1.157,1.157,0,0,1,2.2.732l-2.822,8.467a1.157,1.157,0,0,1-1.464.732ZM627.821,612.587a1.157,1.157,0,0,0,.44.863c4.463,3.519,12.407,5.621,21.25,5.621h0c.73,0,1.474-.015,2.21-.043,9.632-.376,18.428-3.206,22.955-7.387.01-.009.016-.02.025-.029a1.13,1.13,0,0,0,.1-.112c.018-.024.038-.046.055-.071a1.16,1.16,0,0,0,.076-.14c.011-.023.024-.044.034-.068a1.174,1.174,0,0,0,.054-.183c0-.016.01-.031.013-.047a1.156,1.156,0,0,0,.017-.241v-.005c0-.014-.005-.027-.006-.041a1.153,1.153,0,0,0-.03-.2c-.006-.023-.016-.044-.023-.066a1.121,1.121,0,0,0-.059-.155c-.015-.03-.033-.057-.05-.085a1.186,1.186,0,0,0-.071-.108,1.055,1.055,0,0,0-.085-.1c-.022-.024-.045-.047-.069-.068s-.03-.032-.047-.046c-4.463-3.519-12.407-5.621-21.25-5.621-.731,0-1.475.015-2.211.043-9.632.376-18.428,3.206-22.954,7.387A1.157,1.157,0,0,0,627.821,612.587Zm23.416-5.969c.706-.027,1.419-.042,2.12-.042,6.492,0,12.414,1.164,16.641,3.191l-21.363.737a1.157,1.157,0,0,0,.039,2.314h.04l21.443-.739c-4.518,2.634-11.242,4.353-18.528,4.637-.706.027-1.419.042-2.12.042h0c-7.589,0-14.407-1.586-18.638-4.289C635.271,609.154,642.885,606.943,651.238,606.618Zm5.038-10.581a24.924,24.924,0,0,0,6.113.816h0a13.131,13.131,0,0,0,5.659-1.086,1.157,1.157,0,0,0,.439-1.7c-1.772-2.527-5.576-4.744-10.174-5.93a24.917,24.917,0,0,0-6.113-.816,13.135,13.135,0,0,0-5.66,1.086,1.158,1.158,0,0,0-.44,1.7C647.874,592.635,651.678,594.851,656.276,596.037Zm-4.075-6.405a22.577,22.577,0,0,1,5.535.743,19.191,19.191,0,0,1,7.789,3.833,13.78,13.78,0,0,1-3.136.331h0a22.582,22.582,0,0,1-5.535-.743,19.191,19.191,0,0,1-7.789-3.833A13.787,13.787,0,0,1,652.2,589.632Zm34.764,27.259a1.157,1.157,0,0,1-.665,1.5l-9.172,3.528a1.157,1.157,0,1,1-.831-2.16l9.172-3.528A1.157,1.157,0,0,1,686.965,616.891Zm-35.06-132.823a1.157,1.157,0,0,1,1.637-1.637l4.586,4.586.5-5.98a1.157,1.157,0,1,1,2.306.192l-.705,8.467a1.157,1.157,0,0,1-1.972.722Zm51.546,83.7,7.761-7.056a1.157,1.157,0,1,1,1.557,1.712l-7.761,7.056a1.157,1.157,0,1,1-1.557-1.712Zm19.716,1.944-7.761,2.822a1.157,1.157,0,1,1-.791-2.175l7.761-2.822a1.157,1.157,0,0,1,.791,2.175ZM607.181,649.278a14.866,14.866,0,0,1-13.354-8.3,18.294,18.294,0,0,1,8.351-24.456,22.578,22.578,0,0,1,30.183,10.306,1.157,1.157,0,0,1-2.078,1.02,20.261,20.261,0,0,0-27.085-9.248,15.977,15.977,0,0,0-7.293,21.358,12.55,12.55,0,0,0,16.777,5.729,9.808,9.808,0,0,0,4.477-13.112,7.606,7.606,0,0,0-10.18-3.476,5.853,5.853,0,0,0-2.675,7.834,4.452,4.452,0,0,0,5.957,2.034,1.157,1.157,0,1,1,1.02,2.078,6.766,6.766,0,0,1-9.055-3.092,8.168,8.168,0,0,1,3.733-10.932,9.92,9.92,0,0,1,13.277,4.533,12.125,12.125,0,0,1-5.535,16.209A14.758,14.758,0,0,1,607.181,649.278Zm152.79-24.785a27.108,27.108,0,0,0,8.6-1.229,1.157,1.157,0,0,0,.655-1.633c-3.538-6.756-12.635-13.722-23.742-18.179a58.757,58.757,0,0,0-21.124-4.507,27.1,27.1,0,0,0-8.6,1.23c-.009,0-.017.009-.026.012a1.159,1.159,0,0,0-.141.065c-.024.013-.05.023-.073.038a1.137,1.137,0,0,0-.159.121c-.009.008-.019.013-.027.022a1.131,1.131,0,0,0-.156.183c-.011.017-.019.036-.03.053a1.166,1.166,0,0,0-.081.145c0,.005,0,.01-.005.016s0,.007-.006.011c-.009.023-.012.047-.02.07a1.2,1.2,0,0,0-.043.152c-.005.029-.006.059-.01.088a1.163,1.163,0,0,0-.008.149c0,.031.005.063.008.094a1.149,1.149,0,0,0,.022.14c.007.032.017.063.027.094a1.18,1.18,0,0,0,.051.131c.008.016.011.034.02.05,3.538,6.756,12.635,13.722,23.742,18.179a58.755,58.755,0,0,0,21.123,4.506Zm-40.757-20.631,20.541,8.863a1.157,1.157,0,1,0,.917-2.125l-20.885-9.011a29.934,29.934,0,0,1,4.572-.33,56.407,56.407,0,0,1,20.261,4.34c9.924,3.983,18.123,9.969,21.841,15.87a27.012,27.012,0,0,1-6.491.709,56.415,56.415,0,0,1-20.261-4.339C730.846,614.282,723.362,609.126,719.214,603.862ZM716.7,583.679c-.007.011-.011.024-.017.035a1.128,1.128,0,0,0-.065.132c-.012.028-.025.055-.035.083a1.193,1.193,0,0,0-.037.153c-.005.026-.013.051-.016.077a1.108,1.108,0,0,0,0,.184c0,.018,0,.037,0,.055a1.159,1.159,0,0,0,.046.238h0v0s0,.006,0,.01a1.145,1.145,0,0,0,.086.2c.01.018.021.035.031.052a1.169,1.169,0,0,0,.1.14c.013.015.024.03.038.045a1.138,1.138,0,0,0,.166.15l.012.007a1.167,1.167,0,0,0,.184.1c.009,0,.016.01.024.014a23.728,23.728,0,0,0,9.218,1.6h0a47.317,47.317,0,0,0,13.683-2.206c8.749-2.7,16.133-7.444,19.27-12.391a1.157,1.157,0,0,0-.519-1.682,23.726,23.726,0,0,0-9.218-1.6,47.319,47.319,0,0,0-13.684,2.206C727.22,573.984,719.836,578.732,716.7,583.679ZM749.653,571.4a23.856,23.856,0,0,1,6.938.911c-3.233,4.074-9.631,7.918-17.153,10.236a44.972,44.972,0,0,1-13,2.1h0a27.309,27.309,0,0,1-4.693-.38l16.023-4.892a1.157,1.157,0,0,0-.676-2.213l-16.082,4.91c3.506-3.438,9.155-6.573,15.643-8.572A44.984,44.984,0,0,1,749.653,571.4Zm-82.5-12.483,7.761,14.817a1.157,1.157,0,1,1-2.05,1.074L665.1,559.987a1.157,1.157,0,1,1,2.05-1.074Zm12.677,10.019-7.056-25.4a1.157,1.157,0,1,1,2.23-.619l7.055,25.4a1.157,1.157,0,1,1-2.23.62Zm6.079-10.755a1.157,1.157,0,1,1,1.361-1.872l7.761,5.645a1.157,1.157,0,1,1-1.361,1.871Zm27.509,53.286,7.056,5.645a1.157,1.157,0,1,1-1.446,1.807l-7.056-5.645a1.157,1.157,0,1,1,1.446-1.807Zm68.684-7.337a7.163,7.163,0,0,0,6.454-4.069,5.573,5.573,0,1,0,.391-5.167,7.152,7.152,0,0,0-13.235-1.129,8.212,8.212,0,0,0-16.148,1.055l-37.593-3.357a1.157,1.157,0,1,0-.206,2.3l37.884,3.383A8.21,8.21,0,0,0,775.243,599,7.166,7.166,0,0,0,782.1,604.127Zm11.557-9.539a3.252,3.252,0,1,1-3.253,3.252A3.256,3.256,0,0,1,793.66,594.588ZM782.1,592.132a4.84,4.84,0,1,1-4.84,4.84A4.846,4.846,0,0,1,782.1,592.132Zm-14.373,9.455a5.9,5.9,0,0,1-5.719-4.48,1.151,1.151,0,0,0-.15-2.015,5.9,5.9,0,1,1,5.868,6.494Zm-16.72-14.551,9.172-4.316a1.157,1.157,0,0,1,.985,2.094L752,589.13a1.157,1.157,0,0,1-.985-2.094ZM804,574.855c6.584,2.072,14.049,4.411,20.683,4.352,7.417-.077,12.193-3.291,14.6-9.827a10.481,10.481,0,0,0-.3-8.093,9.86,9.86,0,0,0-5.6-5.164,6.737,6.737,0,0,0-8.531,4.134,4.3,4.3,0,0,0,.121,3.321,4.011,4.011,0,0,0,2.278,2.1,2.541,2.541,0,0,0,3.21-1.572,1.157,1.157,0,1,1,2.171.8,4.858,4.858,0,0,1-6.172,2.947,6.309,6.309,0,0,1-3.587-3.3,6.6,6.6,0,0,1-.193-5.1,9.053,9.053,0,0,1,11.491-5.509,12.157,12.157,0,0,1,6.912,6.365,12.779,12.779,0,0,1,.372,9.868c-2.741,7.439-8.376,11.255-16.749,11.341h-.3c-6.933,0-14.781-2.469-21.105-4.46-1.982-.624-3.854-1.213-5.541-1.681a1.157,1.157,0,1,1,.619-2.23C800.1,573.63,801.994,574.225,804,574.855Zm7.221-13.889-.534,5.881,5.3-2.121a1.157,1.157,0,1,1,.859,2.149l-7.055,2.822a1.157,1.157,0,0,1-1.582-1.179l.705-7.761a1.157,1.157,0,0,1,2.3.209Zm3.092,60.794a1.157,1.157,0,0,1-.231-1.62l4.233-5.645a1.157,1.157,0,1,1,1.851,1.389l-4.233,5.645a1.158,1.158,0,0,1-1.62.231Zm-22.746,33.5a1.157,1.157,0,1,1-1.1,2.037,25.748,25.748,0,0,0-16.812-2.718,1.157,1.157,0,0,1-.559-2.246A27.6,27.6,0,0,1,791.563,655.256Zm-82.5-20.663a5.766,5.766,0,1,0,5.1-5.7l-7.47-16.3a1.157,1.157,0,1,0-2.1.965l7.362,16.061A5.742,5.742,0,0,0,709.063,634.593Zm5.743-3.429a3.429,3.429,0,1,1-3.429,3.429A3.433,3.433,0,0,1,714.806,631.164Zm56.872-22.514,4.234,6.35a1.157,1.157,0,1,1-1.925,1.283l-4.234-6.35a1.157,1.157,0,1,1,1.925-1.284Zm-19.169,22.744-14.887,20.461a1.157,1.157,0,0,1-1.871-1.362l14.887-20.461a1.157,1.157,0,1,1,1.871,1.362Zm-18.9,91.783a1.157,1.157,0,0,1-1.157,1.157c-18.788,0-34.855-15.391-36.917-34.446l-6.869,12.638c.317,2.815,2.3,11.3,14.47,19.412a1.157,1.157,0,1,1-1.283,1.926c-10.158-6.772-13.7-13.8-14.92-18.148l-7.086,13.039a1.157,1.157,0,1,1-2.033-1.105l1.771-3.259-6.141,2.632a1.157,1.157,0,0,1-.912-2.127l8.1-3.471a1.148,1.148,0,0,1,.608-.079l4.451-8.19-7.713,2.029a1.157,1.157,0,1,1-.589-2.238l9.768-2.57c.017,0,.033-.006.049-.01l8.246-15.172a1.157,1.157,0,0,1,2.174.553c0,19.662,15.949,36.273,34.826,36.273A1.157,1.157,0,0,1,733.609,723.176Zm-2.553-84.05c1.75-8.213-5.215-15.927-5.512-16.252a1.157,1.157,0,0,0-1.707,1.563c.065.071,6.461,7.176,4.953,14.216-.881,4.114-4.314,7.495-10.2,10.047a1.157,1.157,0,1,0,.92,2.123,30.562,30.562,0,0,0,4.453-2.351l-1.923,9.753c-2.677,2.576-4.808,7.527-5.6,13.079-.82,5.758-.08,11.307,1.933,14.479a1.157,1.157,0,0,0,.814.526,1.135,1.135,0,0,0,.163.011,1.157,1.157,0,0,0,.766-.289c2.818-2.484,5.078-7.605,5.9-13.364.786-5.517.135-10.836-1.691-14.063l2.418-12.264A13.531,13.531,0,0,0,731.056,639.126Zm-7.336,33.216c-.635,4.46-2.157,8.443-4.091,10.847-1.186-2.848-1.535-7.1-.9-11.558s2.156-8.443,4.091-10.847C724.006,663.632,724.356,667.882,723.721,672.342Zm11.224-43.935a1.157,1.157,0,1,1,2.07-1.035l2.822,5.645a1.157,1.157,0,0,1-2.07,1.035ZM601.263,549.478c3.9-2.169,11.281-3.082,15.228-3.428-3.91-4.457-6.92-12.122-7.066-12.5a1.157,1.157,0,0,1,2.157-.839c.039.1,3.985,10.148,8.294,13.379a1.157,1.157,0,0,1-.639,2.082c-.119.005-11.941.6-16.85,3.327a1.157,1.157,0,0,1-1.124-2.023Zm-3.891-12.261a1.157,1.157,0,0,1,1.961-1.228c.027.043,2.614,4.086,5.963,4.086a1.157,1.157,0,0,1,0,2.314C600.658,542.39,597.5,537.429,597.372,537.218Zm94.157-62.268a9.46,9.46,0,0,1,2.7-9.24,1.157,1.157,0,0,1,1.486,1.774,7.168,7.168,0,0,0-1.93,6.964,1.157,1.157,0,1,1-2.259.5Zm86.178,14.972a3.941,3.941,0,1,0-3.941-3.941A3.946,3.946,0,0,0,777.707,489.921Zm0-5.569a1.627,1.627,0,1,1-1.627,1.627A1.629,1.629,0,0,1,777.707,484.353Zm-29.167,2.255,1.785-1.785-1.785-1.785a1.157,1.157,0,0,1,1.636-1.637l1.785,1.785,1.786-1.785a1.157,1.157,0,0,1,1.636,1.637l-1.785,1.785,1.785,1.785a1.157,1.157,0,1,1-1.636,1.637l-1.786-1.785-1.785,1.785a1.157,1.157,0,0,1-1.636-1.637ZM591.433,602.353a23.856,23.856,0,0,0,5.818-.739c5.651-1.423,10.377-4.741,12.424-8.7a55.272,55.272,0,0,1,11.126-5.6c.308.035.614.062.916.075a18.8,18.8,0,0,0-6.663,7.77c-2.26,4.7-2.646,9.862-1.008,13.478a1.154,1.154,0,0,0,1.338.644c3.848-.976,7.642-4.5,9.9-9.2s2.646-9.862,1.008-13.478a.609.609,0,0,1-.412-.725c-.01-.141-.03-.283-.047-.426,8.58-2.943,20.957-6.119,38.09-8.293a38.039,38.039,0,0,1,3.21,5.682,1.157,1.157,0,0,0,2.106-.961,41.114,41.114,0,0,0-12.419-15.565l5.471-17.1a1.157,1.157,0,0,0-2.2-.705l-5.239,16.372a48.274,48.274,0,0,0-14.219-6.572c-12.881-3.637-27.178-2.435-40.358,3.367a7.45,7.45,0,0,0-11.368-1.41,1.154,1.154,0,0,0-.16.131,1.138,1.138,0,0,0-.115.141,7.46,7.46,0,1,0,12.582,3.254,59.118,59.118,0,0,1,32-4.652l-16.165,5.878a1.157,1.157,0,1,0,.791,2.175l19.093-6.943a1.145,1.145,0,0,0,.48-.339,47.169,47.169,0,0,1,14.937,6.137l-23.015,5.294a1.157,1.157,0,1,0,.519,2.255l25.075-5.768a39.713,39.713,0,0,1,7.428,7.2c-16.537,2.173-28.575,5.234-37.05,8.112a19.64,19.64,0,0,0-17.11-12.33,11.069,11.069,0,0,0-2.706.32,1.157,1.157,0,0,0-.87,1.2c.281,3.96,3.079,8.318,7.3,11.373a20.735,20.735,0,0,0,5,2.671,51.514,51.514,0,0,0-8.184,4.36,16.872,16.872,0,0,0-8.779-2.214,23.861,23.861,0,0,0-5.819.738c-5.777,1.455-10.589,4.89-12.558,8.965a1.157,1.157,0,0,0,.363,1.44,16.284,16.284,0,0,0,9.488,2.684Zm31.768-3.272c-1.771,3.68-4.543,6.515-7.41,7.643-.908-2.944-.423-6.879,1.347-10.559s4.543-6.515,7.41-7.643C625.455,591.466,624.97,595.4,623.2,599.081Zm-24.052-33.364a5.113,5.113,0,0,1-.765,2.688l-7.071-7.071a5.138,5.138,0,0,1,7.836,4.384Zm-10.3,0a5.114,5.114,0,0,1,.81-2.762l7.1,7.1a5.14,5.14,0,0,1-7.91-4.338Zm24.429,16.117c-3.308-2.393-5.607-5.623-6.211-8.643a9.551,9.551,0,0,1,1.129-.065A17.388,17.388,0,0,1,623.135,583.9q-1.437.52-2.721,1.025A17.216,17.216,0,0,1,613.28,581.835Zm-18.575,9.674a21.543,21.543,0,0,1,5.254-.668,14.838,14.838,0,0,1,7.274,1.693c-1.926,3.084-5.861,5.656-10.547,6.837a21.544,21.544,0,0,1-5.253.668h0a14.841,14.841,0,0,1-7.274-1.694C586.084,595.261,590.019,592.688,594.705,591.508Zm8.946,16.544c-.089.008-7.3.683-15.533,7.821a1.157,1.157,0,1,1-1.516-1.749c8.865-7.683,16.546-8.354,16.869-8.379a1.157,1.157,0,0,1,.18,2.307Zm-19.168-30.759a1.157,1.157,0,0,1,2.252-.516c.135.228,2,2.914,15.217,4.383a1.157,1.157,0,0,1-.127,2.307,1.187,1.187,0,0,1-.129-.007C586.395,581.76,584.653,578.311,584.483,577.294Zm62.026,19.489a1.157,1.157,0,0,1-.134,2.306,1.175,1.175,0,0,1-.136-.008c-10.337-1.216-14.054-8.425-14.207-8.731a1.157,1.157,0,0,1,2.068-1.038C634.24,589.585,637.47,595.719,646.509,596.782Zm93.532,102.755A13.828,13.828,0,0,1,723.3,709.665c-10.226-2.518-18.81-17.871-16.114-28.82a1.157,1.157,0,1,1,2.247.553c-2.389,9.7,5.428,23.806,14.42,26.02a11.537,11.537,0,0,0,13.944-8.434,7.532,7.532,0,0,0-5.506-9.1,4.792,4.792,0,0,0-5.79,3.5,2.913,2.913,0,0,0,2.13,3.521,1.157,1.157,0,0,1-.553,2.247,5.23,5.23,0,0,1-3.824-6.322,7.107,7.107,0,0,1,8.59-5.2,9.837,9.837,0,0,1,7.2,11.9ZM754.37,680.6a1.157,1.157,0,0,1-.321,1.6l-6.943,4.629a1.157,1.157,0,1,1-1.284-1.926l6.943-4.628A1.157,1.157,0,0,1,754.37,680.6Zm-.976,35.676a1.157,1.157,0,0,1-1.849,1.392c-7.326-9.729-3.116-22.925-2.933-23.481a1.157,1.157,0,0,1,2.2.721C750.754,695.087,746.818,707.545,753.394,716.278Zm-6.61,4.157a1.157,1.157,0,1,1-1.8,1.459l-7.521-9.257a1.157,1.157,0,0,1,1.8-1.459Zm97.168-118.454a4.336,4.336,0,0,0-3.692,2.071l-20.176-4.707a63.349,63.349,0,0,0-7.264-8.279l27.5,1.25a4.331,4.331,0,1,0,.062-2.314l-30.1-1.368a1.2,1.2,0,0,0-.144.009,56.2,56.2,0,0,0-40.129-13.681,1.157,1.157,0,1,0,.143,2.31c1.635-.1,3.257-.122,4.865-.075l4.27,6.832a1.157,1.157,0,0,0,1.962-1.227l-3.4-5.446c16.239,1.347,30.773,10.113,40.47,23.411a1.158,1.158,0,0,0,.378.519,65.043,65.043,0,0,1,11.546,30.458,6.941,6.941,0,1,0,6.682,11.673,1.142,1.142,0,0,0,.9-1.066,6.937,6.937,0,0,0-5.281-10.845,68.754,68.754,0,0,0-3.9-16.309l7.875,4.922a5.083,5.083,0,1,0,.94-2.141l-10.312-6.445a65.568,65.568,0,0,0-5.088-9.351l17.566,4.1c0,.015,0,.028,0,.043a4.339,4.339,0,1,0,4.339-4.339Zm.579-12.728a2.025,2.025,0,1,1-2.025,2.025A2.027,2.027,0,0,1,844.531,589.253Zm-3.041,29.013a2.752,2.752,0,1,1-2.752,2.751A2.754,2.754,0,0,1,841.49,618.266Zm-14.027,20.165a4.6,4.6,0,0,1,.934-2.777l6.471,6.471a4.62,4.62,0,0,1-7.406-3.694Zm9.257,0a4.6,4.6,0,0,1-.4,1.873l-6.1-6.1a4.58,4.58,0,0,1,1.22-.348c.022,0,.043.006.065.006a1.072,1.072,0,0,0,.115-.006,1.151,1.151,0,0,0,.186-.037c.1-.006.19-.015.287-.015A4.634,4.634,0,0,1,836.721,638.431Zm7.232-30.085a2.025,2.025,0,1,1,2.025-2.025A2.028,2.028,0,0,1,843.953,608.346ZM698.937,673.864a1.157,1.157,0,0,1-.633,1.509,32.436,32.436,0,0,0-16.729,15.577,1.157,1.157,0,1,1-2.133-.9,34.31,34.31,0,0,1,17.985-16.822A1.157,1.157,0,0,1,698.937,673.864Zm-26.865,9.948a70.706,70.706,0,0,0,13.641-13.278,74.091,74.091,0,0,0,9.619-16.225l8.6,15.077a1.157,1.157,0,1,0,2.01-1.147l-9.493-16.647a79.014,79.014,0,0,0,3.756-12.74l10.1,16.454a1.157,1.157,0,0,0,1.973-1.21l-11.445-18.653a81.181,81.181,0,0,0,1.032-12.908,1.2,1.2,0,0,0-.013-.126,1.155,1.155,0,0,0-1.637-1.21l-21.775,10.234a32.326,32.326,0,0,0-16.512-4.3,40.046,40.046,0,0,0-17.071,3.944,39.569,39.569,0,0,0-15.387,12.821,1.139,1.139,0,0,0-.356.415,1.171,1.171,0,0,0-.085.23,31.35,31.35,0,0,0-5.126,13.089v.006l0,.016a1.171,1.171,0,0,0-.009.188c0,.019,0,.037,0,.056a1.193,1.193,0,0,0,.021.15c0,.021.009.042.015.062a1.145,1.145,0,0,0,.064.182s0,.008,0,.012l0,0c.014.03.032.058.049.087a1.15,1.15,0,0,0,.392.4l0,0a32.246,32.246,0,0,0,16.772,4.455h0a40.042,40.042,0,0,0,17.068-3.944,41.144,41.144,0,0,0,6.827-4.1,1.156,1.156,0,0,0,.552-.419c7.139-5.484,12.037-13.051,13.43-21.109l20.438-9.606a77.951,77.951,0,0,1-.811,9.8l-.029.01-14.111,6.35a1.157,1.157,0,0,0,.95,2.11l12.738-5.732a76.155,76.155,0,0,1-3.7,13.27H682.1a1.157,1.157,0,0,0,0,2.315h11.538a73.8,73.8,0,0,1-6.561,12.3l-10.457-4.88a1.157,1.157,0,0,0-.978,2.1l10.109,4.718a71.076,71.076,0,0,1-4.965,6.22c-1.824-2.534-5.376-4.986-9.574-6.555a24.594,24.594,0,0,0-8.441-1.666,12.007,12.007,0,0,0-4.087.627,1.157,1.157,0,0,0-.616,1.648c1.572,2.835,5.457,5.683,10.139,7.432a24.594,24.594,0,0,0,8.441,1.666q.61,0,1.18-.043a67.288,67.288,0,0,1-10.144,8.252,1.122,1.122,0,0,0,.006-.2c0-.025-.008-.049-.011-.074a1.141,1.141,0,0,0-.029-.158c-.008-.029-.02-.057-.03-.086a1.137,1.137,0,0,0-.057-.135c-.006-.011-.009-.024-.015-.035-2.387-4.3-8.332-8.645-15.514-11.329a37.8,37.8,0,0,0-12.973-2.563,18.144,18.144,0,0,0-6.168.941,1.157,1.157,0,0,0-.616,1.649c2.387,4.3,8.332,8.644,15.514,11.328a37.809,37.809,0,0,0,12.973,2.563h0a20.174,20.174,0,0,0,4.726-.511,64.237,64.237,0,0,1-7.991,4.112,24.01,24.01,0,0,0-6.907-.91,40.727,40.727,0,0,0-10.346,1.438c-7.407,1.983-13.74,5.734-16.528,9.79a1.157,1.157,0,0,0,.455,1.7,21.007,21.007,0,0,0,8.862,1.658h0a40.733,40.733,0,0,0,10.346-1.438c7.406-1.983,13.74-5.734,16.528-9.789a1.159,1.159,0,0,0,.164-.955c-.008-.031-.023-.058-.034-.088q2.793-1.284,5.469-2.824a33.842,33.842,0,0,0-4.3,8.683c-2.068,6.187-2.375,12.449-.8,16.345a1.157,1.157,0,0,0,1.669.558c3.6-2.165,7.122-7.353,9.191-13.54S673.643,687.707,672.072,683.811Zm3.779-51.164-6.107,2.87-11.851-5.84a35.206,35.206,0,0,1,4.03-.235A30.509,30.509,0,0,1,675.851,632.647Zm-30,.516a38.887,38.887,0,0,1,8.229-2.837,1.152,1.152,0,0,0,.253.176l12.736,6.276-12.121,5.7L642.3,635.082A39.222,39.222,0,0,1,645.846,633.163Zm-5.71,3.336,12.265,7.17-11.289,5.306-9.177-4.555A36.393,36.393,0,0,1,640.137,636.5Zm-12.544,21.389,12.03-5.655-4.118,8.215A29.008,29.008,0,0,1,627.592,657.888Zm3.01-11.546,7.837,3.89L626.583,655.8A29.5,29.5,0,0,1,630.6,646.342Zm10.61,14.6q-1.665,0-3.285-.161l4.852-9.678a1.147,1.147,0,0,0,.114-.4l11.147-5.239L649.6,659.931a36.232,36.232,0,0,1-8.387,1.007Zm16.077-3.72a39.179,39.179,0,0,1-5.042,1.982l4.49-14.645a1.154,1.154,0,0,0,.05-.39l10.881-5.114-3.938,14.305A38.951,38.951,0,0,1,657.289,657.218Zm9.547-6.43,3.588-13.033,6.053-2.845A31.966,31.966,0,0,1,666.836,650.788Zm2.184,21.187a20.435,20.435,0,0,1-8.012-5.106,12.446,12.446,0,0,1,1.766-.119,22.588,22.588,0,0,1,7.631,1.519,20.438,20.438,0,0,1,8.012,5.106,12.406,12.406,0,0,1-1.766.119A22.589,22.589,0,0,1,669.02,671.975Zm-8.252,11.632a35.994,35.994,0,0,1-12.163-2.417c-5.97-2.231-10.976-5.609-13.5-9.042a18.472,18.472,0,0,1,3.959-.394,35.994,35.994,0,0,1,12.163,2.417,33.853,33.853,0,0,1,11.959,7.26l-12.944-4.745a1.157,1.157,0,0,0-.8,2.173l12.8,4.692c-.48.033-.97.055-1.478.055Zm-17.982,15.917a38.372,38.372,0,0,1-9.748,1.36,21.241,21.241,0,0,1-6.5-.89c2.84-3.176,8.148-6.06,14.305-7.708a38.368,38.368,0,0,1,9.748-1.359,26.753,26.753,0,0,1,2.907.154,62.83,62.83,0,0,1-8.514,2.33,1.157,1.157,0,1,0,.452,2.27,65.424,65.424,0,0,0,11.064-3.25C653.557,695.361,648.543,697.983,642.786,699.524Zm26.287-.108c-1.655,4.951-4.248,9.161-6.969,11.418-.817-3.44-.355-8.362,1.3-13.313a29.984,29.984,0,0,1,4.927-9.33l-2.8,7.7a1.157,1.157,0,1,0,2.175.79l3-8.271A29.253,29.253,0,0,1,669.073,699.416Zm-49.336-34.6c.03.143,2.378,11.122,12.711,16.561a1.157,1.157,0,1,1-1.078,2.048c-11.35-5.974-13.8-17.659-13.9-18.154a1.157,1.157,0,0,1,2.269-.455Zm4.072,25.106a1.152,1.152,0,0,1-.757-.283c-8.733-7.568-11.7-12.821-11.825-13.041a1.157,1.157,0,0,1,2.022-1.125c.035.062,2.947,5.162,11.319,12.418a1.157,1.157,0,0,1-.758,2.031Zm-9.835-30.664a41.822,41.822,0,0,1-14.315-2.4,1.157,1.157,0,0,1,.858-2.149,40.3,40.3,0,0,0,13.457,2.232,1.157,1.157,0,0,1,0,2.314Zm-2.033,8.933L605,669.928a1.157,1.157,0,0,1-.562-2.245l6.943-1.736a1.157,1.157,0,0,1,.562,2.245ZM828.392,539.909l8.1-4.05a1.157,1.157,0,0,1,1.035,2.07l-8.1,4.05a1.157,1.157,0,1,1-1.035-2.07Zm4.5,5.087,9.257-.578a1.157,1.157,0,1,1,.145,2.31l-9.257.579-.074,0a1.157,1.157,0,0,1-.071-2.312ZM818.6,512.823a5.063,5.063,0,1,0-5.063-5.063A5.068,5.068,0,0,0,818.6,512.823Zm0-7.811a2.749,2.749,0,1,1-2.749,2.748A2.751,2.751,0,0,1,818.6,505.012Zm11.433,169.681a1.158,1.158,0,0,1-.748,1.456,23.664,23.664,0,0,1-16.855-.856,25.067,25.067,0,0,1,3.764,15.084,1.158,1.158,0,0,1-1.147,1.014,1.119,1.119,0,0,1-.145-.009,1.157,1.157,0,0,1-1-1.289,23.73,23.73,0,0,0-7.046-18.132,1.157,1.157,0,0,1,1.571-1.7c.085.072,8.795,7.333,20.154,3.682A1.159,1.159,0,0,1,830.032,674.693Zm-4.672,9.469a1.157,1.157,0,1,1-1.537,1.729l-3.905-3.471a1.157,1.157,0,0,1,1.538-1.73Z" transform="translate(-565.466 -444.441)" fill="#c99795"></path>
  </g>
</svg>
