<svg version="1.2" xmlns="http://www.w3.org/2000/svg" viewBox="0 0 697 911" width="697" height="911">
	<defs>
		<linearGradient id="g1" x2="1" gradientUnits="userSpaceOnUse" gradientTransform="matrix(496.217,654.431,-892.465,676.704,589.342,-357.076)">
			<stop offset="0" stop-color="#132148"/>
			<stop offset=".365" stop-color="#3b2b71"/>
			<stop offset=".685" stop-color="#b46b8d"/>
			<stop offset="1" stop-color="#f1b795"/>
		</linearGradient>
	</defs>
	<style>
		.s0 { fill: #fefefe } 
		.s1 { fill: url(#g1) } 
		.s2 { fill: #142048 } 
	</style>
	<g id="Layer 1">
		<path id="&lt;Compound Path&gt; copy 3" class="s0" d="m345.63 0.08c-190.67 0-345.78 155.12-345.78 345.78v532.48 28.62h28.61 634.47 28.61v-28.62-532.48c0-147.97-93.9-279.4-233.68-327.04-35.9-12.42-73.7-18.74-112.23-18.74zm0 28.62c35.36 0 70 5.79 103 17.2 128.14 43.68 214.3 164.24 214.3 299.96v532.48h-634.47v-532.48c0-174.88 142.28-317.16 317.17-317.16z"/>
		<path id="&lt;Compound Path&gt; copy 4" class="s0" d="m345.63 0.08c-190.67 0-345.78 155.12-345.78 345.78v532.48 28.62h28.61 634.47 28.61v-28.62-532.48c0-147.97-93.9-279.4-233.68-327.04-35.9-12.42-73.7-18.74-112.23-18.74zm0 28.62c35.36 0 70 5.79 103 17.2 128.14 43.68 214.3 164.24 214.3 299.96v532.48h-634.47v-532.48c0-174.88 142.28-317.16 317.17-317.16z"/>
		<path id="&lt;Path&gt; copy 2" class="s1" d="m52.27 345.87v511.01h591.56v-511.01c0-126.47-80.26-238.92-199.86-279.69-30.62-10.59-62.95-16.02-95.99-16.02-163.1 0-295.71 132.62-295.71 295.71z"/>
		<path id="&lt;Path&gt; copy 3" class="s0" d="m49.92 419.11v437.77h591.56v-81.54c-113.45-210.88-335.63-354.65-591.56-356.23z"/>
		<path id="&lt;Compound Path&gt; copy 5" class="s2" d="m662.93 878.34h-634.47v-532.48c0-174.88 142.28-317.16 317.16-317.16 35.37 0 70.01 5.79 103.01 17.2 128.14 43.68 214.3 164.24 214.3 299.96zm-591.55-42.92h548.63v-489.56c0-117.34-74.48-221.58-185.32-259.37-28.56-9.88-58.5-14.87-89.07-14.87-151.22 0-274.24 123.02-274.24 274.24z"/>
		<path id="&lt;Path&gt; copy 4" class="s0" d="m283.57 128.86l-11.41 11.41 11.41 11.41 11.41-11.41z"/>
		<path id="&lt;Path&gt; copy 5" class="s0" d="m515.98 458.45l-11.41 11.41 11.41 11.41 11.4-11.41z"/>
		<path id="&lt;Path&gt; copy 6" class="s0" d="m206.22 319.15l-8.47 15.49-15.5 8.48 15.5 8.47 8.47 15.5 8.48-15.5 15.49-8.47-15.49-8.48z"/>
		<path id="&lt;Path&gt; copy 7" class="s0" d="m266.99 242.21c0-3.44-2.79-6.23-6.23-6.23-3.44 0-6.24 2.79-6.24 6.23 0 3.44 2.8 6.23 6.24 6.23 3.44 0 6.23-2.79 6.23-6.23z"/>
		<path id="&lt;Path&gt; copy 8" class="s0" d="m417.52 106.47c0-3.45-2.79-6.24-6.23-6.24-3.45 0-6.24 2.79-6.24 6.24 0 3.44 2.79 6.23 6.24 6.23 3.44 0 6.23-2.79 6.23-6.23z"/>
		<path id="&lt;Path&gt; copy 9" class="s0" d="m142.66 271.26c0-3.44-2.8-6.23-6.24-6.23-3.44 0-6.23 2.79-6.23 6.23 0 3.44 2.79 6.23 6.23 6.23 3.44 0 6.24-2.79 6.24-6.23z"/>
		<path id="&lt;Path&gt; copy 10" class="s0" d="m377.27 385.35c0-3.44-2.79-6.23-6.23-6.23-3.44 0-6.23 2.79-6.23 6.23 0 3.44 2.79 6.23 6.23 6.23 3.44 0 6.23-2.79 6.23-6.23z"/>
		<path id="&lt;Path&gt; copy 11" class="s0" d="m569.64 567.05c0-3.45-2.79-6.24-6.23-6.24-3.44 0-6.23 2.79-6.23 6.24 0 3.44 2.79 6.23 6.23 6.23 3.44 0 6.23-2.79 6.23-6.23z"/>
		<path id="&lt;Path&gt; copy 12" class="s0" d="m569.64 360c0-3.45-2.79-6.24-6.23-6.24-3.45 0-6.24 2.79-6.24 6.24 0 3.44 2.79 6.23 6.24 6.23 3.44 0 6.23-2.79 6.23-6.23z"/>
		<path id="&lt;Path&gt; copy 13" class="s0" d="m430.2 338.87c-46.74 0-84.51-37.78-84.51-84.51 0-46.73 37.77-84.51 84.51-84.51 46.73 0 84.51 37.78 84.51 84.51 0 46.73-37.78 84.51-84.51 84.51z"/>
		<path id="&lt;Compound Path&gt; copy 6" class="s2" d="m229.74 848.65c-1.04-5.43-6.04-2.81-9.49-4.55 2.13-41.05 8.63-95.17 7.76-136.04q-0.41-0.01-0.82-0.02c-2.39 12.4-25.47 93.94-25.61 94.84-3 19.66 6.42 21.95 8.04 22.97 3.49 2.18 3.79 5.48 3.81 9.11-0.91 5.87-8.64 6.05-12.75 9.12-4.21-0.03-5.62-1.54-10.21 0.53-3.68 0.74-10.44 2.03-11.64-2.53 5.57-39.26 1.78-79.56 16.04-117.62-0.05-22.03-2.9-44.09-1.58-65.93-1.35-15.66-10.48-30.57-12.77-46.36-0.3-2.06-0.21-4.12 0.03-6.18 3.7-30.75 2.79-66.43 35.96-79.99 4.76-2.81 9.17-5.14 9.91-9.61-1.59-8.48-10.4-17.11-9.01-27.74 4.6-19.64 30.72-25.95 38.95-4.35 2.03 9.97 5.38 19.88-1.87 29.49-12.1 16 19.58 25.93 21.67 29.66 5.92 10.57 14.66 78.64 17.04 108.19-3.15 15.52 15.08 37.96-5.81 46.39-5.04 2.84-6.2-3.04-3.9-6.28 1.56-1.69 2.05-2.97 1.39-5.09-0.29-9.38-3.59-18.79-8.13-27.06-0.33 0.14-6.97-0.06-7.3 0.08-0.16 2.88-1.25 10.77-1.68 14.03-4.08 25.24-21.86 117.48-22.82 141.46-0.49 12.48 14.51 16.58 22 14.94 6.68-0.37 4.74 11.16 0.27 12.57-6.33 3.13-11.5-0.33-15.23 5.97q-11.12 0-22.25 0zm-43.9-8.19c0.1-2.73-3.73-3.06-4.84-0.8q0.13 0.69 0.27 1.37 2.28-0.29 4.57-0.57z"/>
	</g>
</svg>