<svg xmlns="http://www.w3.org/2000/svg" xmlns:xlink="http://www.w3.org/1999/xlink" width="663" height="734" viewBox="0 0 663 734"><defs><clipPath id="clip-tama-relax-avatar"><rect width="663" height="734"></rect></clipPath></defs><g id="tama-relax-avatar" clip-path="url(#clip-tama-relax-avatar)"><rect width="663" height="734" fill="#33715d"></rect><g id="Groupe_25267" data-name="Groupe 25267" transform="translate(-379.274 95.989)"><path id="Trac&#xE9;_24783" data-name="Trac&#xE9; 24783" d="M653.139,120.49c3.849,11.894-2.467,25.248-7.516,36.071-11.055,23.711-33.294,39.868-52.6,57.109-15.278,13.638-24.267,18.339-28.361,31-.465,1.421-6.147,19.785,3.074,30.75,5.721,6.793,14.8,7.955,14.529,8.769s-9.312.478-15.769-4.791c-9.234-7.542-8.963-21.787-8.911-25.08.723-39.093,66.692-52.744,86.516-112.771a106.446,106.446,0,0,0,4.611-20.961l4.417-.077Z" transform="translate(20.781 35.116)" fill="#fff"></path><path id="Trac&#xE9;_24784" data-name="Trac&#xE9; 24784" d="M617.6,97.882c-5.424,1.136-10.99,4.443-16.221,7.775-12.256,7.788-21.245,17.4-27.47,33.152-3.216,8.149-2.544,11.507-4.158,18.287-8.24,34.7-15.007,35.348-25.132,52.627-.71,1.227-1.395,2.441-2.028,3.668-3.978-9.647,3.513-17.2,7.7-25.416,4.6-9.04,6.909-24.9,3.6-34.586-2.415-7.051-15.265,7.491-17.151,11.029-4.391,8.278-6.38,16.13-4.908,25.713.762,4.959,2.2,6.238,3.435,9.944a49.689,49.689,0,0,1,2.531,12.166c1.382,14.619-2.467,23.1,1.124,31.008a13.251,13.251,0,0,0,4.391,5.553,11.535,11.535,0,0,0,5.825,2.2s.375.026,3.758-.026h0c-3.138-.659-7.646-2.157-10.4-6.005-7.064-9.854,2.777-27.521,5.76-32.894,6.367-11.442,10.68-11.636,18.778-26.385,4.3-7.826,3.435-8.976,6.9-13.354,6.612-8.382,15.472-12.037,24.176-17.8,13.147-8.717,29.239-29.885,33.32-47.668,2.97-12.953-6.393-10.538-13.806-8.976ZM538.038,171.07c2.854-8.072,9.428-15.7,12.333-14.594,3.422,1.3,1.175,14.413.827,16.453-1.782,10.409-7.039,24.15-10.823,23.6-3.6-.529-6.328-14.18-2.338-25.442Zm84.5-55.649c-4.339,8.614-6.884,13.69-13.7,21.1-8.072,8.795-25.08,24.086-29.923,20.521-4.016-2.957,2.208-17.5,3.332-20.108,4.546-10.629,11.339-17.022,15.627-20.973a59.211,59.211,0,0,1,17-10.965c3.887-1.64,9.131-3.849,10.965-1.924.878.917,1.343,3.138-3.293,12.334Z" transform="translate(13.141 28.162)" fill="#fff"></path><path id="Trac&#xE9;_24785" data-name="Trac&#xE9; 24785" d="M495.284,223.008c-2.777-21.787-.478-44.1,5.45-65.206,1.989-6.729,4.675-14.258,7.31-20.818,1.124-2.376,3.384-7.852,4.456-10.1C538.794,71,588.761,27.35,648.091,9.592c125.673-38.4,258.72,42.58,281.876,171.92C940.247,236.7,928,295.821,896.738,342.223a216.872,216.872,0,0,1-86.619,75,219.367,219.367,0,0,0,24.473-15.162C941.268,327.087,957.76,172.33,867.525,77.885a213.138,213.138,0,0,0-91.552-57.044c-100.231-31-208.766,15.911-255.117,110.046-14.025,28.9-21.335,60.363-25.558,92.121h0Z" transform="translate(2.285 0)" fill="#fff"></path><path id="Trac&#xE9;_24786" data-name="Trac&#xE9; 24786" d="M671.946,181.005c-2.66,2.428-13.083-2.467-17.409-2.8-14.5-1.1-25.61,7.374-36.277,15.7,6.819-19.992,38.912-31.331,54.268-14.981a2.353,2.353,0,0,1-.568,2.079Z" transform="translate(38.47 49.867)" fill="#fff"></path><path id="Trac&#xE9;_24787" data-name="Trac&#xE9; 24787" d="M667.344,195.731c1.963,2.441.594,6.109-1.136,8.278-6.716,8.433-28.038,5.876-35.567-.943,4.507-.878,9.6,1.395,14.5,1.524,5.269.129,13.225-.026,17.267-3.6,1.059-.943,3.784-5.85,4.921-5.256Z" transform="translate(42.079 57.032)" fill="#fff"></path><path id="Trac&#xE9;_24788" data-name="Trac&#xE9; 24788" d="M679.825,233.034c4.275,3.642,5.76,2.363,10.952,2.144-1.524,2.066-6.147,3.707-8.562,3.384-3.151-.413-6.238-7.671-3.784-7.491.672.452.839,1.472,1.395,1.95Z" transform="translate(55.749 67.346)" fill="#fff"></path><path id="Trac&#xE9;_24789" data-name="Trac&#xE9; 24789" d="M723.34,260.083c-2.183,2.053-6.586,4.12-7.245,7.013-1.614,7.09,7.31,10.383,1.24,18.442-1.291,1.731-4.029,2.221-4.4,4.623-.284,2.738,3.823,5.45,3.784,9.66-.052,4.92-5.385,6.664-5.889,9.931-.284,1.911,1.756,7.09,2.028,9.66,2.389,23.376-17.771,31.008-37.685,29.458-13.857-1.072-39.958-7.594-46.648-9.815-.452-.155-1.459-.994-1.317-1.382.413-1.136,10.693,1.743,15.059,2.867,17.874,4.6,37.259,9.6,51.4,1.408,6.122-3.552,14.1-11.352,13.845-19.424-.129-3.862-3.087-9.2-2.79-12.114.452-4.378,8.446-7.555,6.354-12.372-2.7-6.212-6.767-2.583-11.223-2.286a68.084,68.084,0,0,1-9.738.013c-.93-.1-9.8-2.053-7.852-3.745,7.348.517,25.442-2.17,30.44-7.723,4.481-4.959-3.732-11.417-2.622-17.177,1.847-9.479,16.841-9.725,13.922-22.484-1.291-5.644-16.427-14.658-21.18-19.979-21.258-23.737-7.181-47.642-23.246-70.308-2.738-3.861-7.878-7.723-10.461-11.249-.749-1.02-1.421-1.511-1.085-3.022,13.2,3.255,22.717,20.25,25.235,32.765,3.629,18.016-1.356,29.91,11.791,45.834,10.564,12.773,37.918,22.937,18.274,41.417Z" transform="translate(41.073 40.826)" fill="#fff"></path><path id="Trac&#xE9;_24790" data-name="Trac&#xE9; 24790" d="M764.865,407.4c-24.37-4.559-49.4-11.882-68.357-28.374-6.38-5.45-10.784-12.23-14.9-19.527-6.483-10.81-13.431-22.433-24.422-29.523-11-6.432-22.575-11.507-33.888-17.138-7.542-3.642-14.477-7.348-21.051-12.786-5.076-3.849-10.009-8.02-15.678-11.236a23.977,23.977,0,0,0-6.47-2.325c-3.849-1.085-7.568-2.712-11.7-4.184-3.19-1.072-7.374-2.48-10.487.271-5.218,6.044-.9,14.749,3.435,19.824a36.087,36.087,0,0,0,10.758,8.433,52.932,52.932,0,0,1,5.2,2.957c7.762,4.946,13.328,12.5,18.907,19.747.245.284.491.542.723.8-7.1.026-15.756-1.718-22.2-5.14a23.048,23.048,0,0,1-4.675-3.409c-4.6-4.12-9.247-8.291-13.909-12.45-6.7-10.642-8.046-22.149-8.588-27.353,0,0-2.221-21.413-5.321-25.829a10.38,10.38,0,0,0-2.609-2.518,8.791,8.791,0,0,0-2.79-1.124,5.492,5.492,0,0,0-4.094.4,24.225,24.225,0,0,0-6.057-9.014c-2.17-1.976-4.74-3.758-7.723-3.978-2.325-.168-4.727.181-6.354,1.589-3.952-6.147-7.943-12.527-13.728-17.189-2.247-1.782-5.437-2.854-8.149-.9-3.552,1.95-4.933,6.483-4.326,10.267.9,6.806,4.4,12.037,6.328,18.119,1.756,6.005,3.267,12.062,4.585,18.2,1.95,8.937,3.732,18.016,6.083,26.966,3.048,7.426,8.162,13.638,12.592,20.2,7.374,10.293,15.046,20.3,22.9,30.22,2.648,3.332,5.166,6.6,8.214,9.893,3.358,3.28,6.806,5.437,10.538,7.968,17.68,11.442,36.019,21.89,54.074,32.584,5.8,3.577,15.782,8.976,20.818,13.005a74.507,74.507,0,0,1,8.5,8.3c13.87,15.588,24.215,33.953,35.632,51.388,4.675,5.85,13.031-.956,8.64-6.677-.439-.542-1.059-1.434-1.614-2.247-8.834-13.173-17.512-26.436-27.586-38.783-5.579-6.754-11.262-13.251-18.326-18.688-5.992-4.481-15.756-9.273-22.278-12.979-14.761-8.02-29.562-15.911-44.026-24.28-6.858-4.184-14.374-8.175-20.354-13.431-2.66-2.867-5.3-6.225-7.865-9.466-11.326-14.891-22.407-30.13-32.532-45.86a17.849,17.849,0,0,1-1.472-2.79l-.22-.749-.439-1.5c-4.081-14.025-7.478-28.477-11.83-42.5-1.472-6.031-10.59-19.282-3.8-23.531.982-.5.762-.465,1.356-.362,3.319,1.369,5.67,4.778,7.943,7.607a117.444,117.444,0,0,1,6.78,10.319c1.472,2.493,2.88,5.024,4.275,7.568l-1.24.439a15.639,15.639,0,0,1-3.087.839.549.549,0,0,0-.478.607.576.576,0,0,0,.62.517c1.743-.116,3.5-.5,5.23-.465,2.2,4.12,4.262,8.3,6.1,12.527,3.022,6.6,4.727,13.78,7.865,20.354a14.179,14.179,0,0,1-7.271.194.564.564,0,0,0-.685.362.554.554,0,0,0,.362.71,35.692,35.692,0,0,0,8.6,1.279,2.912,2.912,0,0,0,.336,0c.142.245.258.491.4.736a41.89,41.89,0,0,0,8.692,9.983c5.657,4.791,13.586,11.546,19.062,16.415,1.137.994,4.533,4.094,7.478,6.7-1.136.323-2.247.7-3.409,1.111a16.815,16.815,0,0,0-5.644,3.332.413.413,0,0,0-.039.542.419.419,0,0,0,.594.1c3.267-1.989,7.62-2.454,11.391-2.557.685.581,1.24,1.046,1.589,1.291,6.393,4.4,14.051,6.625,21.606,7.955,3.177.413,6.225.9,9.466.413a27.082,27.082,0,0,0,6.341,5.243l1.02-.8a42.305,42.305,0,0,0-5.489-11.184s-2.26-2.906-3.022-4.042c-6.238-8.847-13.405-17.654-23.285-22.691-6.69-3.4-13.974-9.157-14.787-17a5.251,5.251,0,0,1,.375-2.183,12.016,12.016,0,0,1,4.572.878c4.481,1.524,9.518,3.616,14.5,4.662,2.88.762,5.45,2.635,8.02,4.326,7.039,4.766,13.238,10.306,20.806,14.632,3.771,2,7.568,3.849,11.378,5.657,11.326,5.385,22.949,10.254,33.811,16.337,10.474,6.574,17.125,17.409,23.66,27.831,2.221,3.552,4.314,7.219,6.974,10.68,18.843,23.44,50.561,31.912,79,36.613a.578.578,0,0,0,.659-.465.591.591,0,0,0-.465-.672ZM537.618,296.544a34.869,34.869,0,0,1-6.005-10.086,184.358,184.358,0,0,0-16.88-37.556.452.452,0,0,0,.065-.1c.982-2.015,3.539-2.118,5.4-1.395a14.9,14.9,0,0,1,5.67,4.288c3.125,3.681,4.946,8.227,6.264,12.811,2.867,9.931,3.8,20.328,6.767,30.233.568,1.9.943,3.293,1.317,4.494a30.65,30.65,0,0,1-2.583-2.686Zm6.406,6.147c-4.288-7.826-4.8-15.808-6.586-25.093-1.085-5.657-1.769-11.882-3.526-17.564a4.261,4.261,0,0,1,4.778-.594,10.355,10.355,0,0,1,3.732,5.592,90.274,90.274,0,0,1,3.513,21.167,66.131,66.131,0,0,0,6.406,23.724c-.349-.31-.7-.62-1.033-.917-1.511-1.382-4.456-3.836-7.271-6.315ZM599.4,338.233Z" transform="translate(0 65.981)" fill="#fff"></path></g></g></svg>